{
    "asset" : {
        "generator" : "Khronos glTF Blender I/O v1.5.17",
        "version" : "2.0"
    },
    "scene" : 0,
    "scenes" : [
        {
            "name" : "Scene",
            "nodes" : [
                0
            ]
        }
    ],
    "nodes" : [
        {
            "mesh" : 0,
            "name" : "tree04",
            "rotation" : [
                0,
                -0.9235722422599792,
                0,
                0.38342446088790894
            ],
            "scale" : [
                1.170348048210144,
                1.170348048210144,
                1.170348048210144
            ],
            "translation" : [
                0,
                -1.9187785387039185,
                0
            ]
        }
    ],
    "materials" : [
        {
            "doubleSided" : true,
            "emissiveFactor" : [
                0.026371979154646397,
                0.09297914430499077,
                0.550436943769455
            ],
            "name" : "tree_02",
            "pbrMetallicRoughness" : {
                "baseColorFactor" : [
                    0.08571606874465942,
                    0.0894426703453064,
                    1,
                    1
                ],
                "metallicFactor" : 0,
                "roughnessFactor" : 0.8088235259056091
            }
        },
        {
            "doubleSided" : true,
            "emissiveFactor" : [
                0.1787780225276947,
                0.039036642760038376,
                0.18878142535686493
            ],
            "name" : "Tree_01",
            "pbrMetallicRoughness" : {
                "baseColorFactor" : [
                    0,
                    0.20136213302612305,
                    1,
                    1
                ],
                "metallicFactor" : 0,
                "roughnessFactor" : 0.8088235259056091
            }
        },
        {
            "doubleSided" : true,
            "emissiveFactor" : [
                0.6465013027191162,
                0.06253097951412201,
                0.5424250960350037
            ],
            "name" : "house_04",
            "pbrMetallicRoughness" : {
                "baseColorFactor" : [
                    1,
                    0.22282306849956512,
                    0.7093249559402466,
                    1
                ],
                "metallicFactor" : 0,
                "roughnessFactor" : 0.8823529481887817
            }
        },
        {
            "doubleSided" : true,
            "emissiveFactor" : [
                0.03680938854813576,
                0.024449029937386513,
                0.05493805184960365
            ],
            "name" : "house_03",
            "pbrMetallicRoughness" : {
                "baseColorFactor" : [
                    0.11276799440383911,
                    0.10036452859640121,
                    1,
                    1
                ],
                "metallicFactor" : 0,
                "roughnessFactor" : 0.6911764740943909
            }
        },
        {
            "doubleSided" : true,
            "name" : "house_01",
            "pbrMetallicRoughness" : {
                "baseColorFactor" : [
                    0.7366018295288086,
                    0.30373674631118774,
                    1,
                    1
                ],
                "metallicFactor" : 0,
                "roughnessFactor" : 0.6470587849617004
            }
        },
        {
            "doubleSided" : true,
            "emissiveFactor" : [
                0.023797770962119102,
                0.023797770962119102,
                0.023797770962119102
            ],
            "name" : "house_02",
            "pbrMetallicRoughness" : {
                "baseColorFactor" : [
                    1,
                    0.6032544374465942,
                    0.9587505459785461,
                    1
                ],
                "metallicFactor" : 0,
                "roughnessFactor" : 0.75
            }
        },
        {
            "doubleSided" : true,
            "emissiveFactor" : [
                1,
                0.5646243691444397,
                1
            ],
            "name" : "Material.006",
            "pbrMetallicRoughness" : {}
        }
    ],
    "meshes" : [
        {
            "name" : "Sphere.010",
            "primitives" : [
                {
                    "attributes" : {
                        "POSITION" : 0,
                        "NORMAL" : 1,
                        "TEXCOORD_0" : 2
                    },
                    "indices" : 3,
                    "material" : 0
                },
                {
                    "attributes" : {
                        "POSITION" : 4,
                        "NORMAL" : 5,
                        "TEXCOORD_0" : 6
                    },
                    "indices" : 7,
                    "material" : 1
                },
                {
                    "attributes" : {
                        "POSITION" : 8,
                        "NORMAL" : 9,
                        "TEXCOORD_0" : 10
                    },
                    "indices" : 11,
                    "material" : 2
                },
                {
                    "attributes" : {
                        "POSITION" : 12,
                        "NORMAL" : 13,
                        "TEXCOORD_0" : 14
                    },
                    "indices" : 15,
                    "material" : 3
                },
                {
                    "attributes" : {
                        "POSITION" : 16,
                        "NORMAL" : 17,
                        "TEXCOORD_0" : 18
                    },
                    "indices" : 19,
                    "material" : 4
                },
                {
                    "attributes" : {
                        "POSITION" : 20,
                        "NORMAL" : 21,
                        "TEXCOORD_0" : 22
                    },
                    "indices" : 23,
                    "material" : 5
                },
                {
                    "attributes" : {
                        "POSITION" : 24,
                        "NORMAL" : 25,
                        "TEXCOORD_0" : 26
                    },
                    "indices" : 27,
                    "material" : 6
                }
            ]
        }
    ],
    "accessors" : [
        {
            "bufferView" : 0,
            "componentType" : 5126,
            "count" : 1380,
            "max" : [
                14.241704940795898,
                5.184520721435547,
                10.056276321411133
            ],
            "min" : [
                -1.0436164140701294,
                2.9491164684295654,
                -1.7415356636047363
            ],
            "type" : "VEC3"
        },
        {
            "bufferView" : 1,
            "componentType" : 5126,
            "count" : 1380,
            "type" : "VEC3"
        },
        {
            "bufferView" : 2,
            "componentType" : 5126,
            "count" : 1380,
            "type" : "VEC2"
        },
        {
            "bufferView" : 3,
            "componentType" : 5123,
            "count" : 6048,
            "type" : "SCALAR"
        },
        {
            "bufferView" : 4,
            "componentType" : 5126,
            "count" : 1920,
            "max" : [
                13.305601119995117,
                3.507014751434326,
                9.189676284790039
            ],
            "min" : [
                -0.37669306993484497,
                1.4460148811340332,
                -0.8272228240966797
            ],
            "type" : "VEC3"
        },
        {
            "bufferView" : 5,
            "componentType" : 5126,
            "count" : 1920,
            "type" : "VEC3"
        },
        {
            "bufferView" : 6,
            "componentType" : 5126,
            "count" : 1920,
            "type" : "VEC2"
        },
        {
            "bufferView" : 7,
            "componentType" : 5123,
            "count" : 11328,
            "type" : "SCALAR"
        },
        {
            "bufferView" : 8,
            "componentType" : 5126,
            "count" : 1396,
            "max" : [
                15.272948265075684,
                4.277774810791016,
                8.722801208496094
            ],
            "min" : [
                1.450035572052002,
                1.5999457836151123,
                -4.114738941192627
            ],
            "type" : "VEC3"
        },
        {
            "bufferView" : 9,
            "componentType" : 5126,
            "count" : 1396,
            "type" : "VEC3"
        },
        {
            "bufferView" : 10,
            "componentType" : 5126,
            "count" : 1396,
            "type" : "VEC2"
        },
        {
            "bufferView" : 11,
            "componentType" : 5123,
            "count" : 5280,
            "type" : "SCALAR"
        },
        {
            "bufferView" : 12,
            "componentType" : 5126,
            "count" : 2004,
            "max" : [
                15.450565338134766,
                4.1708526611328125,
                8.997483253479004
            ],
            "min" : [
                1.199244737625122,
                2.9127402305603027,
                -4.3049726486206055
            ],
            "type" : "VEC3"
        },
        {
            "bufferView" : 13,
            "componentType" : 5126,
            "count" : 2004,
            "type" : "VEC3"
        },
        {
            "bufferView" : 14,
            "componentType" : 5126,
            "count" : 2004,
            "type" : "VEC2"
        },
        {
            "bufferView" : 15,
            "componentType" : 5123,
            "count" : 8304,
            "type" : "SCALAR"
        },
        {
            "bufferView" : 16,
            "componentType" : 5126,
            "count" : 3336,
            "max" : [
                15.32640266418457,
                3.4350814819335938,
                8.559860229492188
            ],
            "min" : [
                1.6038779020309448,
                1.844981074333191,
                -4.1862897872924805
            ],
            "type" : "VEC3"
        },
        {
            "bufferView" : 17,
            "componentType" : 5126,
            "count" : 3336,
            "type" : "VEC3"
        },
        {
            "bufferView" : 18,
            "componentType" : 5126,
            "count" : 3336,
            "type" : "VEC2"
        },
        {
            "bufferView" : 19,
            "componentType" : 5123,
            "count" : 18336,
            "type" : "SCALAR"
        },
        {
            "bufferView" : 20,
            "componentType" : 5126,
            "count" : 888,
            "max" : [
                15.556063652038574,
                2.2810723781585693,
                7.35563850402832
            ],
            "min" : [
                1.3597891330718994,
                1.5976816415786743,
                -3.546194553375244
            ],
            "type" : "VEC3"
        },
        {
            "bufferView" : 21,
            "componentType" : 5126,
            "count" : 888,
            "type" : "VEC3"
        },
        {
            "bufferView" : 22,
            "componentType" : 5126,
            "count" : 888,
            "type" : "VEC2"
        },
        {
            "bufferView" : 23,
            "componentType" : 5123,
            "count" : 4224,
            "type" : "SCALAR"
        },
        {
            "bufferView" : 24,
            "componentType" : 5126,
            "count" : 318,
            "max" : [
                15.061935424804688,
                3.3735032081604004,
                8.486930847167969
            ],
            "min" : [
                1.690938115119934,
                2.156388759613037,
                -4.137282371520996
            ],
            "type" : "VEC3"
        },
        {
            "bufferView" : 25,
            "componentType" : 5126,
            "count" : 318,
            "type" : "VEC3"
        },
        {
            "bufferView" : 26,
            "componentType" : 5126,
            "count" : 318,
            "type" : "VEC2"
        },
        {
            "bufferView" : 27,
            "componentType" : 5123,
            "count" : 480,
            "type" : "SCALAR"
        }
    ],
    "bufferViews" : [
        {
            "buffer" : 0,
            "byteLength" : 16560,
            "byteOffset" : 0
        },
        {
            "buffer" : 0,
            "byteLength" : 16560,
            "byteOffset" : 16560
        },
        {
            "buffer" : 0,
            "byteLength" : 11040,
            "byteOffset" : 33120
        },
        {
            "buffer" : 0,
            "byteLength" : 12096,
            "byteOffset" : 44160
        },
        {
            "buffer" : 0,
            "byteLength" : 23040,
            "byteOffset" : 56256
        },
        {
            "buffer" : 0,
            "byteLength" : 23040,
            "byteOffset" : 79296
        },
        {
            "buffer" : 0,
            "byteLength" : 15360,
            "byteOffset" : 102336
        },
        {
            "buffer" : 0,
            "byteLength" : 22656,
            "byteOffset" : 117696
        },
        {
            "buffer" : 0,
            "byteLength" : 16752,
            "byteOffset" : 140352
        },
        {
            "buffer" : 0,
            "byteLength" : 16752,
            "byteOffset" : 157104
        },
        {
            "buffer" : 0,
            "byteLength" : 11168,
            "byteOffset" : 173856
        },
        {
            "buffer" : 0,
            "byteLength" : 10560,
            "byteOffset" : 185024
        },
        {
            "buffer" : 0,
            "byteLength" : 24048,
            "byteOffset" : 195584
        },
        {
            "buffer" : 0,
            "byteLength" : 24048,
            "byteOffset" : 219632
        },
        {
            "buffer" : 0,
            "byteLength" : 16032,
            "byteOffset" : 243680
        },
        {
            "buffer" : 0,
            "byteLength" : 16608,
            "byteOffset" : 259712
        },
        {
            "buffer" : 0,
            "byteLength" : 40032,
            "byteOffset" : 276320
        },
        {
            "buffer" : 0,
            "byteLength" : 40032,
            "byteOffset" : 316352
        },
        {
            "buffer" : 0,
            "byteLength" : 26688,
            "byteOffset" : 356384
        },
        {
            "buffer" : 0,
            "byteLength" : 36672,
            "byteOffset" : 383072
        },
        {
            "buffer" : 0,
            "byteLength" : 10656,
            "byteOffset" : 419744
        },
        {
            "buffer" : 0,
            "byteLength" : 10656,
            "byteOffset" : 430400
        },
        {
            "buffer" : 0,
            "byteLength" : 7104,
            "byteOffset" : 441056
        },
        {
            "buffer" : 0,
            "byteLength" : 8448,
            "byteOffset" : 448160
        },
        {
            "buffer" : 0,
            "byteLength" : 3816,
            "byteOffset" : 456608
        },
        {
            "buffer" : 0,
            "byteLength" : 3816,
            "byteOffset" : 460424
        },
        {
            "buffer" : 0,
            "byteLength" : 2544,
            "byteOffset" : 464240
        },
        {
            "buffer" : 0,
            "byteLength" : 960,
            "byteOffset" : 466784
        }
    ],
    "buffers" : [
        {
            "byteLength" : 467744,
            "uri" : "data:application/octet-stream;base64,"
        }
    ]
}
