{
    "asset" : {
        "generator" : "Khronos glTF Blender I/O v1.4.40",
        "version" : "2.0"
    },
    "scene" : 0,
    "scenes" : [
        {
            "name" : "Scene",
            "nodes" : [
                0
            ]
        }
    ],
    "nodes" : [
        {
            "mesh" : 0,
            "name" : "tree04",
            "rotation" : [
                0,
                -0.9235722422599792,
                0,
                0.38342446088790894
            ],
            "scale" : [
                1.170348048210144,
                1.170348048210144,
                1.170348048210144
            ]
        }
    ],
    "materials" : [
        {
            "doubleSided" : true,
            "emissiveFactor" : [
                0.026371978223323822,
                0.09297914803028107,
                0.5504369735717773
            ],
            "name" : "tree_02",
            "pbrMetallicRoughness" : {
                "baseColorFactor" : [
                    0.08571606874465942,
                    0.0894426703453064,
                    1,
                    1
                ],
                "metallicFactor" : 0,
                "roughnessFactor" : 0.8088235259056091
            }
        },
        {
            "doubleSided" : true,
            "emissiveFactor" : [
                0.1787780225276947,
                0.039036642760038376,
                0.18878142535686493
            ],
            "name" : "Tree_01",
            "pbrMetallicRoughness" : {
                "baseColorFactor" : [
                    0,
                    0.20136213302612305,
                    1,
                    1
                ],
                "metallicFactor" : 0,
                "roughnessFactor" : 0.8088235259056091
            }
        },
        {
            "doubleSided" : true,
            "emissiveFactor" : [
                0.6465013027191162,
                0.06253097951412201,
                0.5424250960350037
            ],
            "name" : "house_04",
            "pbrMetallicRoughness" : {
                "baseColorFactor" : [
                    1,
                    0.22282306849956512,
                    0.7093249559402466,
                    1
                ],
                "metallicFactor" : 0,
                "roughnessFactor" : 0.8823529481887817
            }
        },
        {
            "doubleSided" : true,
            "emissiveFactor" : [
                0.03680938854813576,
                0.024449029937386513,
                0.05493805184960365
            ],
            "name" : "house_03",
            "pbrMetallicRoughness" : {
                "baseColorFactor" : [
                    0.11276799440383911,
                    0.10036452859640121,
                    1,
                    1
                ],
                "metallicFactor" : 0,
                "roughnessFactor" : 0.6911764740943909
            }
        },
        {
            "doubleSided" : true,
            "name" : "house_01",
            "pbrMetallicRoughness" : {
                "baseColorFactor" : [
                    0.7366018295288086,
                    0.30373674631118774,
                    1,
                    1
                ],
                "metallicFactor" : 0,
                "roughnessFactor" : 0.6470587849617004
            }
        },
        {
            "doubleSided" : true,
            "emissiveFactor" : [
                0.023797770962119102,
                0.023797770962119102,
                0.023797770962119102
            ],
            "name" : "house_02",
            "pbrMetallicRoughness" : {
                "baseColorFactor" : [
                    1,
                    0.6032544374465942,
                    0.9587505459785461,
                    1
                ],
                "metallicFactor" : 0,
                "roughnessFactor" : 0.75
            }
        },
        {
            "doubleSided" : true,
            "emissiveFactor" : [
                1,
                0.5646243691444397,
                1
            ],
            "name" : "Material.006",
            "pbrMetallicRoughness" : {}
        }
    ],
    "meshes" : [
        {
            "name" : "Sphere.010",
            "primitives" : [
                {
                    "attributes" : {
                        "POSITION" : 0,
                        "NORMAL" : 1,
                        "TEXCOORD_0" : 2
                    },
                    "indices" : 3,
                    "material" : 0
                },
                {
                    "attributes" : {
                        "POSITION" : 4,
                        "NORMAL" : 5,
                        "TEXCOORD_0" : 6
                    },
                    "indices" : 7,
                    "material" : 1
                },
                {
                    "attributes" : {
                        "POSITION" : 8,
                        "NORMAL" : 9,
                        "TEXCOORD_0" : 10
                    },
                    "indices" : 11,
                    "material" : 2
                },
                {
                    "attributes" : {
                        "POSITION" : 12,
                        "NORMAL" : 13,
                        "TEXCOORD_0" : 14
                    },
                    "indices" : 15,
                    "material" : 3
                },
                {
                    "attributes" : {
                        "POSITION" : 16,
                        "NORMAL" : 17,
                        "TEXCOORD_0" : 18
                    },
                    "indices" : 19,
                    "material" : 4
                },
                {
                    "attributes" : {
                        "POSITION" : 20,
                        "NORMAL" : 21,
                        "TEXCOORD_0" : 22
                    },
                    "indices" : 23,
                    "material" : 5
                },
                {
                    "attributes" : {
                        "POSITION" : 24,
                        "NORMAL" : 25,
                        "TEXCOORD_0" : 26
                    },
                    "indices" : 27,
                    "material" : 6
                }
            ]
        }
    ],
    "accessors" : [
        {
            "bufferView" : 0,
            "componentType" : 5126,
            "count" : 1380,
            "max" : [
                2.8524303436279297,
                3.5450267791748047,
                8.31937313079834
            ],
            "min" : [
                -12.432890892028809,
                1.3096226453781128,
                -3.4784388542175293
            ],
            "type" : "VEC3"
        },
        {
            "bufferView" : 1,
            "componentType" : 5126,
            "count" : 1380,
            "type" : "VEC3"
        },
        {
            "bufferView" : 2,
            "componentType" : 5126,
            "count" : 1380,
            "type" : "VEC2"
        },
        {
            "bufferView" : 3,
            "componentType" : 5123,
            "count" : 6048,
            "type" : "SCALAR"
        },
        {
            "bufferView" : 4,
            "componentType" : 5126,
            "count" : 1920,
            "max" : [
                1.9163265228271484,
                1.8675209283828735,
                7.452773094177246
            ],
            "min" : [
                -11.76596736907959,
                -0.19347894191741943,
                -2.5641260147094727
            ],
            "type" : "VEC3"
        },
        {
            "bufferView" : 5,
            "componentType" : 5126,
            "count" : 1920,
            "type" : "VEC3"
        },
        {
            "bufferView" : 6,
            "componentType" : 5126,
            "count" : 1920,
            "type" : "VEC2"
        },
        {
            "bufferView" : 7,
            "componentType" : 5123,
            "count" : 11328,
            "type" : "SCALAR"
        },
        {
            "bufferView" : 8,
            "componentType" : 5126,
            "count" : 1498,
            "max" : [
                3.883673667907715,
                2.6382808685302734,
                6.985898017883301
            ],
            "min" : [
                -9.939239501953125,
                -0.03954803943634033,
                -5.85164213180542
            ],
            "type" : "VEC3"
        },
        {
            "bufferView" : 9,
            "componentType" : 5126,
            "count" : 1498,
            "type" : "VEC3"
        },
        {
            "bufferView" : 10,
            "componentType" : 5126,
            "count" : 1498,
            "type" : "VEC2"
        },
        {
            "bufferView" : 11,
            "componentType" : 5123,
            "count" : 5280,
            "type" : "SCALAR"
        },
        {
            "bufferView" : 12,
            "componentType" : 5126,
            "count" : 2044,
            "max" : [
                4.061290740966797,
                2.5313587188720703,
                7.260580062866211
            ],
            "min" : [
                -10.190030097961426,
                1.27324640750885,
                -6.041875839233398
            ],
            "type" : "VEC3"
        },
        {
            "bufferView" : 13,
            "componentType" : 5126,
            "count" : 2044,
            "type" : "VEC3"
        },
        {
            "bufferView" : 14,
            "componentType" : 5126,
            "count" : 2044,
            "type" : "VEC2"
        },
        {
            "bufferView" : 15,
            "componentType" : 5123,
            "count" : 8304,
            "type" : "SCALAR"
        },
        {
            "bufferView" : 16,
            "componentType" : 5126,
            "count" : 3511,
            "max" : [
                3.9371280670166016,
                1.7955876588821411,
                6.8229570388793945
            ],
            "min" : [
                -9.785396575927734,
                0.20548725128173828,
                -5.923192977905273
            ],
            "type" : "VEC3"
        },
        {
            "bufferView" : 17,
            "componentType" : 5126,
            "count" : 3511,
            "type" : "VEC3"
        },
        {
            "bufferView" : 18,
            "componentType" : 5126,
            "count" : 3511,
            "type" : "VEC2"
        },
        {
            "bufferView" : 19,
            "componentType" : 5123,
            "count" : 18336,
            "type" : "SCALAR"
        },
        {
            "bufferView" : 20,
            "componentType" : 5126,
            "count" : 888,
            "max" : [
                4.1667890548706055,
                0.6415785551071167,
                5.618735313415527
            ],
            "min" : [
                -10.029485702514648,
                -0.04181218147277832,
                -5.283097743988037
            ],
            "type" : "VEC3"
        },
        {
            "bufferView" : 21,
            "componentType" : 5126,
            "count" : 888,
            "type" : "VEC3"
        },
        {
            "bufferView" : 22,
            "componentType" : 5126,
            "count" : 888,
            "type" : "VEC2"
        },
        {
            "bufferView" : 23,
            "componentType" : 5123,
            "count" : 4224,
            "type" : "SCALAR"
        },
        {
            "bufferView" : 24,
            "componentType" : 5126,
            "count" : 440,
            "max" : [
                3.6726608276367188,
                1.7340093851089478,
                6.750027656555176
            ],
            "min" : [
                -9.698336601257324,
                0.5168949365615845,
                -5.874185562133789
            ],
            "type" : "VEC3"
        },
        {
            "bufferView" : 25,
            "componentType" : 5126,
            "count" : 440,
            "type" : "VEC3"
        },
        {
            "bufferView" : 26,
            "componentType" : 5126,
            "count" : 440,
            "type" : "VEC2"
        },
        {
            "bufferView" : 27,
            "componentType" : 5123,
            "count" : 480,
            "type" : "SCALAR"
        }
    ],
    "bufferViews" : [
        {
            "buffer" : 0,
            "byteLength" : 16560,
            "byteOffset" : 0
        },
        {
            "buffer" : 0,
            "byteLength" : 16560,
            "byteOffset" : 16560
        },
        {
            "buffer" : 0,
            "byteLength" : 11040,
            "byteOffset" : 33120
        },
        {
            "buffer" : 0,
            "byteLength" : 12096,
            "byteOffset" : 44160
        },
        {
            "buffer" : 0,
            "byteLength" : 23040,
            "byteOffset" : 56256
        },
        {
            "buffer" : 0,
            "byteLength" : 23040,
            "byteOffset" : 79296
        },
        {
            "buffer" : 0,
            "byteLength" : 15360,
            "byteOffset" : 102336
        },
        {
            "buffer" : 0,
            "byteLength" : 22656,
            "byteOffset" : 117696
        },
        {
            "buffer" : 0,
            "byteLength" : 17976,
            "byteOffset" : 140352
        },
        {
            "buffer" : 0,
            "byteLength" : 17976,
            "byteOffset" : 158328
        },
        {
            "buffer" : 0,
            "byteLength" : 11984,
            "byteOffset" : 176304
        },
        {
            "buffer" : 0,
            "byteLength" : 10560,
            "byteOffset" : 188288
        },
        {
            "buffer" : 0,
            "byteLength" : 24528,
            "byteOffset" : 198848
        },
        {
            "buffer" : 0,
            "byteLength" : 24528,
            "byteOffset" : 223376
        },
        {
            "buffer" : 0,
            "byteLength" : 16352,
            "byteOffset" : 247904
        },
        {
            "buffer" : 0,
            "byteLength" : 16608,
            "byteOffset" : 264256
        },
        {
            "buffer" : 0,
            "byteLength" : 42132,
            "byteOffset" : 280864
        },
        {
            "buffer" : 0,
            "byteLength" : 42132,
            "byteOffset" : 322996
        },
        {
            "buffer" : 0,
            "byteLength" : 28088,
            "byteOffset" : 365128
        },
        {
            "buffer" : 0,
            "byteLength" : 36672,
            "byteOffset" : 393216
        },
        {
            "buffer" : 0,
            "byteLength" : 10656,
            "byteOffset" : 429888
        },
        {
            "buffer" : 0,
            "byteLength" : 10656,
            "byteOffset" : 440544
        },
        {
            "buffer" : 0,
            "byteLength" : 7104,
            "byteOffset" : 451200
        },
        {
            "buffer" : 0,
            "byteLength" : 8448,
            "byteOffset" : 458304
        },
        {
            "buffer" : 0,
            "byteLength" : 5280,
            "byteOffset" : 466752
        },
        {
            "buffer" : 0,
            "byteLength" : 5280,
            "byteOffset" : 472032
        },
        {
            "buffer" : 0,
            "byteLength" : 3520,
            "byteOffset" : 477312
        },
        {
            "buffer" : 0,
            "byteLength" : 960,
            "byteOffset" : 480832
        }
    ],
    "buffers" : [
        {
            "byteLength" : 481792,
            "uri" : "data:application/octet-stream;base64,"
        }
    ]
}
