{
    "asset" : {
        "generator" : "Khronos glTF Blender I/O v1.4.40",
        "version" : "2.0"
    },
    "scene" : 0,
    "scenes" : [
        {
            "name" : "Scene",
            "nodes" : [
                0,
                1
            ]
        }
    ],
    "nodes" : [
        {
            "mesh" : 0,
            "name" : "sofa 1",
            "rotation" : [
                0,
                -0.9467248916625977,
                0,
                0.32204344868659973
            ],
            "scale" : [
                0.07385717332363129,
                0.07385715842247009,
                0.07385717332363129
            ]
        },
        {
            "mesh" : 1,
            "name" : "Newspaper",
            "rotation" : [
                0,
                0.04982038959860802,
                0,
                0.9987581968307495
            ],
            "scale" : [
                0.10000002384185791,
                0.10000002384185791,
                0.10000002384185791
            ]
        }
    ],
    "materials" : [
        {
            "doubleSided" : true,
            "emissiveFactor" : [
                0.0560445562005043,
                0.0027408127207309008,
                0.13757726550102234
            ],
            "name" : "sofa_01",
            "pbrMetallicRoughness" : {
                "baseColorFactor" : [
                    0.5840784907341003,
                    0.018267078325152397,
                    0.5203694701194763,
                    1
                ],
                "metallicFactor" : 0,
                "roughnessFactor" : 0.708823561668396
            }
        },
        {
            "doubleSided" : true,
            "name" : "newspaper",
            "pbrMetallicRoughness" : {
                "baseColorFactor" : [
                    0.8000000715255737,
                    0.7542654871940613,
                    0.6845876574516296,
                    1
                ],
                "metallicFactor" : 0,
                "roughnessFactor" : 0.5
            }
        },
        {
            "doubleSided" : true,
            "name" : "newspaper02",
            "pbrMetallicRoughness" : {
                "baseColorFactor" : [
                    0.710553765296936,
                    0.6700550317764282,
                    0.6083455681800842,
                    1
                ],
                "metallicFactor" : 0,
                "roughnessFactor" : 0.5
            }
        }
    ],
    "meshes" : [
        {
            "name" : "Cube.006",
            "primitives" : [
                {
                    "attributes" : {
                        "POSITION" : 0,
                        "NORMAL" : 1,
                        "TEXCOORD_0" : 2
                    },
                    "indices" : 3,
                    "material" : 0
                }
            ]
        },
        {
            "name" : "Plane",
            "primitives" : [
                {
                    "attributes" : {
                        "POSITION" : 4,
                        "NORMAL" : 5,
                        "TEXCOORD_0" : 6
                    },
                    "indices" : 7,
                    "material" : 1
                },
                {
                    "attributes" : {
                        "POSITION" : 8,
                        "NORMAL" : 9,
                        "TEXCOORD_0" : 10
                    },
                    "indices" : 11,
                    "material" : 2
                }
            ]
        }
    ],
    "accessors" : [
        {
            "bufferView" : 0,
            "componentType" : 5126,
            "count" : 862,
            "max" : [
                2.7312350273132324,
                6.0675811767578125,
                3.3418796062469482
            ],
            "min" : [
                -3.4291090965270996,
                0.06328743696212769,
                -3.2964115142822266
            ],
            "type" : "VEC3"
        },
        {
            "bufferView" : 1,
            "componentType" : 5126,
            "count" : 862,
            "type" : "VEC3"
        },
        {
            "bufferView" : 2,
            "componentType" : 5126,
            "count" : 862,
            "type" : "VEC2"
        },
        {
            "bufferView" : 3,
            "componentType" : 5123,
            "count" : 3378,
            "type" : "SCALAR"
        },
        {
            "bufferView" : 4,
            "componentType" : 5126,
            "count" : 126,
            "max" : [
                -0.5632436871528625,
                5.0420026779174805,
                3.211095094680786
            ],
            "min" : [
                -3.0857865810394287,
                1.8694449663162231,
                -0.03340411186218262
            ],
            "type" : "VEC3"
        },
        {
            "bufferView" : 5,
            "componentType" : 5126,
            "count" : 126,
            "type" : "VEC3"
        },
        {
            "bufferView" : 6,
            "componentType" : 5126,
            "count" : 126,
            "type" : "VEC2"
        },
        {
            "bufferView" : 7,
            "componentType" : 5123,
            "count" : 588,
            "type" : "SCALAR"
        },
        {
            "bufferView" : 8,
            "componentType" : 5126,
            "count" : 32,
            "max" : [
                -1.1291970014572144,
                4.291088581085205,
                2.560063600540161
            ],
            "min" : [
                -2.602538824081421,
                2.2437946796417236,
                0.7347061634063721
            ],
            "type" : "VEC3"
        },
        {
            "bufferView" : 9,
            "componentType" : 5126,
            "count" : 32,
            "type" : "VEC3"
        },
        {
            "bufferView" : 10,
            "componentType" : 5126,
            "count" : 32,
            "type" : "VEC2"
        },
        {
            "bufferView" : 11,
            "componentType" : 5123,
            "count" : 72,
            "type" : "SCALAR"
        }
    ],
    "bufferViews" : [
        {
            "buffer" : 0,
            "byteLength" : 10344,
            "byteOffset" : 0
        },
        {
            "buffer" : 0,
            "byteLength" : 10344,
            "byteOffset" : 10344
        },
        {
            "buffer" : 0,
            "byteLength" : 6896,
            "byteOffset" : 20688
        },
        {
            "buffer" : 0,
            "byteLength" : 6756,
            "byteOffset" : 27584
        },
        {
            "buffer" : 0,
            "byteLength" : 1512,
            "byteOffset" : 34340
        },
        {
            "buffer" : 0,
            "byteLength" : 1512,
            "byteOffset" : 35852
        },
        {
            "buffer" : 0,
            "byteLength" : 1008,
            "byteOffset" : 37364
        },
        {
            "buffer" : 0,
            "byteLength" : 1176,
            "byteOffset" : 38372
        },
        {
            "buffer" : 0,
            "byteLength" : 384,
            "byteOffset" : 39548
        },
        {
            "buffer" : 0,
            "byteLength" : 384,
            "byteOffset" : 39932
        },
        {
            "buffer" : 0,
            "byteLength" : 256,
            "byteOffset" : 40316
        },
        {
            "buffer" : 0,
            "byteLength" : 144,
            "byteOffset" : 40572
        }
    ],
    "buffers" : [
        {
            "byteLength" : 40716,
            "uri" : "data:application/octet-stream;base64,"
        }
    ]
}
