{
    "asset" : {
        "generator" : "Khronos glTF Blender I/O v1.4.40",
        "version" : "2.0"
    },
    "scene" : 0,
    "scenes" : [
        {
            "name" : "Scene",
            "nodes" : [
                0
            ]
        }
    ],
    "nodes" : [
        {
            "mesh" : 0,
            "name" : "House",
            "rotation" : [
                0,
                -0.9235722422599792,
                0,
                0.38342446088790894
            ],
            "scale" : [
                1.170348048210144,
                1.170348048210144,
                1.170348048210144
            ]
        }
    ],
    "materials" : [
        {
            "doubleSided" : true,
            "emissiveFactor" : [
                0.6465013027191162,
                0.06253097951412201,
                0.5424250960350037
            ],
            "name" : "house_04",
            "pbrMetallicRoughness" : {
                "baseColorFactor" : [
                    1,
                    0.22282306849956512,
                    0.7093249559402466,
                    1
                ],
                "metallicFactor" : 0,
                "roughnessFactor" : 0.8823530077934265
            }
        },
        {
            "doubleSided" : true,
            "emissiveFactor" : [
                0.03680938854813576,
                0.024449029937386513,
                0.05493805184960365
            ],
            "name" : "house_03",
            "pbrMetallicRoughness" : {
                "baseColorFactor" : [
                    0.21114113926887512,
                    0.2269136756658554,
                    1,
                    1
                ],
                "metallicFactor" : 0
            }
        },
        {
            "doubleSided" : true,
            "name" : "house_01",
            "pbrMetallicRoughness" : {
                "baseColorFactor" : [
                    0.29387354850769043,
                    0.532212495803833,
                    1,
                    1
                ],
                "metallicFactor" : 0,
                "roughnessFactor" : 0.7021276950836182
            }
        },
        {
            "doubleSided" : true,
            "emissiveFactor" : [
                0.023797770962119102,
                0.023797770962119102,
                0.023797770962119102
            ],
            "name" : "house_02",
            "pbrMetallicRoughness" : {
                "baseColorFactor" : [
                    1,
                    0.6032544374465942,
                    0.9587505459785461,
                    1
                ],
                "metallicFactor" : 0,
                "roughnessFactor" : 0.75
            }
        },
        {
            "doubleSided" : true,
            "emissiveFactor" : [
                1,
                0.5646243691444397,
                1
            ],
            "name" : "Material.006",
            "pbrMetallicRoughness" : {}
        }
    ],
    "meshes" : [
        {
            "name" : "Sphere.001",
            "primitives" : [
                {
                    "attributes" : {
                        "POSITION" : 0,
                        "NORMAL" : 1,
                        "TEXCOORD_0" : 2
                    },
                    "indices" : 3,
                    "material" : 0
                },
                {
                    "attributes" : {
                        "POSITION" : 4,
                        "NORMAL" : 5,
                        "TEXCOORD_0" : 6
                    },
                    "indices" : 7,
                    "material" : 1
                },
                {
                    "attributes" : {
                        "POSITION" : 8,
                        "NORMAL" : 9,
                        "TEXCOORD_0" : 10
                    },
                    "indices" : 11,
                    "material" : 2
                },
                {
                    "attributes" : {
                        "POSITION" : 12,
                        "NORMAL" : 13,
                        "TEXCOORD_0" : 14
                    },
                    "indices" : 15,
                    "material" : 3
                },
                {
                    "attributes" : {
                        "POSITION" : 16,
                        "NORMAL" : 17,
                        "TEXCOORD_0" : 18
                    },
                    "indices" : 19,
                    "material" : 4
                }
            ]
        }
    ],
    "accessors" : [
        {
            "bufferView" : 0,
            "componentType" : 5126,
            "count" : 378,
            "max" : [
                1.677262306213379,
                2.6382808685302734,
                1.967353343963623
            ],
            "min" : [
                -2.4094033241271973,
                -0.03954792022705078,
                -1.896059274673462
            ],
            "type" : "VEC3"
        },
        {
            "bufferView" : 1,
            "componentType" : 5126,
            "count" : 378,
            "type" : "VEC3"
        },
        {
            "bufferView" : 2,
            "componentType" : 5126,
            "count" : 378,
            "type" : "VEC2"
        },
        {
            "bufferView" : 3,
            "componentType" : 5123,
            "count" : 1320,
            "type" : "SCALAR"
        },
        {
            "bufferView" : 4,
            "componentType" : 5126,
            "count" : 511,
            "max" : [
                1.9873578548431396,
                2.5313587188720703,
                2.2671256065368652
            ],
            "min" : [
                -2.6929214000701904,
                1.27324640750885,
                -2.1734025478363037
            ],
            "type" : "VEC3"
        },
        {
            "bufferView" : 5,
            "componentType" : 5126,
            "count" : 511,
            "type" : "VEC3"
        },
        {
            "bufferView" : 6,
            "componentType" : 5126,
            "count" : 511,
            "type" : "VEC2"
        },
        {
            "bufferView" : 7,
            "componentType" : 5123,
            "count" : 2076,
            "type" : "SCALAR"
        },
        {
            "bufferView" : 8,
            "componentType" : 5126,
            "count" : 882,
            "max" : [
                1.513052225112915,
                1.7955875396728516,
                1.8020286560058594
            ],
            "min" : [
                -2.2556533813476562,
                0.20548737049102783,
                -1.714994192123413
            ],
            "type" : "VEC3"
        },
        {
            "bufferView" : 9,
            "componentType" : 5126,
            "count" : 882,
            "type" : "VEC3"
        },
        {
            "bufferView" : 10,
            "componentType" : 5126,
            "count" : 882,
            "type" : "VEC2"
        },
        {
            "bufferView" : 11,
            "componentType" : 5123,
            "count" : 4584,
            "type" : "SCALAR"
        },
        {
            "bufferView" : 12,
            "componentType" : 5126,
            "count" : 222,
            "max" : [
                0.8092162609100342,
                0.6415786147117615,
                1.304944396018982
            ],
            "min" : [
                -2.311422109603882,
                -0.04181206226348877,
                -1.7828505039215088
            ],
            "type" : "VEC3"
        },
        {
            "bufferView" : 13,
            "componentType" : 5126,
            "count" : 222,
            "type" : "VEC3"
        },
        {
            "bufferView" : 14,
            "componentType" : 5126,
            "count" : 222,
            "type" : "VEC2"
        },
        {
            "bufferView" : 15,
            "componentType" : 5123,
            "count" : 1056,
            "type" : "SCALAR"
        },
        {
            "bufferView" : 16,
            "componentType" : 5126,
            "count" : 112,
            "max" : [
                1.4618000984191895,
                1.7340092658996582,
                1.750535011291504
            ],
            "min" : [
                -2.204160451889038,
                0.5168949961662292,
                -1.662248134613037
            ],
            "type" : "VEC3"
        },
        {
            "bufferView" : 17,
            "componentType" : 5126,
            "count" : 112,
            "type" : "VEC3"
        },
        {
            "bufferView" : 18,
            "componentType" : 5126,
            "count" : 112,
            "type" : "VEC2"
        },
        {
            "bufferView" : 19,
            "componentType" : 5123,
            "count" : 120,
            "type" : "SCALAR"
        }
    ],
    "bufferViews" : [
        {
            "buffer" : 0,
            "byteLength" : 4536,
            "byteOffset" : 0
        },
        {
            "buffer" : 0,
            "byteLength" : 4536,
            "byteOffset" : 4536
        },
        {
            "buffer" : 0,
            "byteLength" : 3024,
            "byteOffset" : 9072
        },
        {
            "buffer" : 0,
            "byteLength" : 2640,
            "byteOffset" : 12096
        },
        {
            "buffer" : 0,
            "byteLength" : 6132,
            "byteOffset" : 14736
        },
        {
            "buffer" : 0,
            "byteLength" : 6132,
            "byteOffset" : 20868
        },
        {
            "buffer" : 0,
            "byteLength" : 4088,
            "byteOffset" : 27000
        },
        {
            "buffer" : 0,
            "byteLength" : 4152,
            "byteOffset" : 31088
        },
        {
            "buffer" : 0,
            "byteLength" : 10584,
            "byteOffset" : 35240
        },
        {
            "buffer" : 0,
            "byteLength" : 10584,
            "byteOffset" : 45824
        },
        {
            "buffer" : 0,
            "byteLength" : 7056,
            "byteOffset" : 56408
        },
        {
            "buffer" : 0,
            "byteLength" : 9168,
            "byteOffset" : 63464
        },
        {
            "buffer" : 0,
            "byteLength" : 2664,
            "byteOffset" : 72632
        },
        {
            "buffer" : 0,
            "byteLength" : 2664,
            "byteOffset" : 75296
        },
        {
            "buffer" : 0,
            "byteLength" : 1776,
            "byteOffset" : 77960
        },
        {
            "buffer" : 0,
            "byteLength" : 2112,
            "byteOffset" : 79736
        },
        {
            "buffer" : 0,
            "byteLength" : 1344,
            "byteOffset" : 81848
        },
        {
            "buffer" : 0,
            "byteLength" : 1344,
            "byteOffset" : 83192
        },
        {
            "buffer" : 0,
            "byteLength" : 896,
            "byteOffset" : 84536
        },
        {
            "buffer" : 0,
            "byteLength" : 240,
            "byteOffset" : 85432
        }
    ],
    "buffers" : [
        {
            "byteLength" : 85672,
            "uri" : "data:application/octet-stream;base64,"
        }
    ]
}
