{
    "asset" : {
        "generator" : "Khronos glTF Blender I/O v1.4.40",
        "version" : "2.0"
    },
    "scene" : 0,
    "scenes" : [
        {
            "name" : "Scene",
            "nodes" : [
                0
            ]
        }
    ],
    "nodes" : [
        {
            "mesh" : 0,
            "name" : "glow2"
        }
    ],
    "materials" : [
        {
            "alphaMode" : "BLEND",
            "doubleSided" : true,
            "emissiveFactor" : [
                1,
                1,
                0
            ],
            "name" : "glow2.001",
            "pbrMetallicRoughness" : {
                "metallicFactor" : 0,
                "roughnessFactor" : 0.5
            }
        },
        {
            "doubleSided" : true,
            "emissiveFactor" : [
                1,
                0.7013720870018005,
                0.4806792140007019
            ],
            "name" : "letter",
            "pbrMetallicRoughness" : {
                "baseColorFactor" : [
                    1,
                    0.8588392734527588,
                    0.8588392734527588,
                    1
                ],
                "metallicFactor" : 0,
                "roughnessFactor" : 0.5
            }
        },
        {
            "doubleSided" : true,
            "emissiveFactor" : [
                0.20189960300922394,
                0.08237389475107193,
                0.061066798865795135
            ],
            "name" : "letter2",
            "pbrMetallicRoughness" : {
                "baseColorFactor" : [
                    0.2597990036010742,
                    0.007462718058377504,
                    0.007462718058377504,
                    1
                ],
                "metallicFactor" : 0,
                "roughnessFactor" : 0.5
            }
        }
    ],
    "meshes" : [
        {
            "name" : "Circle.002",
            "primitives" : [
                {
                    "attributes" : {
                        "POSITION" : 0,
                        "NORMAL" : 1,
                        "TEXCOORD_0" : 2
                    },
                    "indices" : 3,
                    "material" : 0
                },
                {
                    "attributes" : {
                        "POSITION" : 4,
                        "NORMAL" : 5,
                        "TEXCOORD_0" : 6
                    },
                    "indices" : 7,
                    "material" : 1
                },
                {
                    "attributes" : {
                        "POSITION" : 8,
                        "NORMAL" : 9,
                        "TEXCOORD_0" : 10
                    },
                    "indices" : 11,
                    "material" : 2
                }
            ]
        }
    ],
    "accessors" : [
        {
            "bufferView" : 0,
            "componentType" : 5126,
            "count" : 54,
            "max" : [
                0.5163822174072266,
                0.4675780236721039,
                -0.07745752483606339
            ],
            "min" : [
                -0.49862146377563477,
                -0.5474257469177246,
                -0.07745758444070816
            ],
            "type" : "VEC3"
        },
        {
            "bufferView" : 1,
            "componentType" : 5126,
            "count" : 54,
            "type" : "VEC3"
        },
        {
            "bufferView" : 2,
            "componentType" : 5126,
            "count" : 54,
            "type" : "VEC2"
        },
        {
            "bufferView" : 3,
            "componentType" : 5123,
            "count" : 54,
            "type" : "SCALAR"
        },
        {
            "bufferView" : 4,
            "componentType" : 5126,
            "count" : 172,
            "max" : [
                0.24403253197669983,
                0.14831940829753876,
                0.031161468476057053
            ],
            "min" : [
                -0.2262718826532364,
                -0.21712283790111542,
                -0.026027221232652664
            ],
            "type" : "VEC3"
        },
        {
            "bufferView" : 5,
            "componentType" : 5126,
            "count" : 172,
            "type" : "VEC3"
        },
        {
            "bufferView" : 6,
            "componentType" : 5126,
            "count" : 172,
            "type" : "VEC2"
        },
        {
            "bufferView" : 7,
            "componentType" : 5123,
            "count" : 240,
            "type" : "SCALAR"
        },
        {
            "bufferView" : 8,
            "componentType" : 5126,
            "count" : 135,
            "max" : [
                0.24403253197669983,
                0.14831940829753876,
                0.03116147592663765
            ],
            "min" : [
                -0.2262718826532364,
                -0.2171228528022766,
                -0.026027221232652664
            ],
            "type" : "VEC3"
        },
        {
            "bufferView" : 9,
            "componentType" : 5126,
            "count" : 135,
            "type" : "VEC3"
        },
        {
            "bufferView" : 10,
            "componentType" : 5126,
            "count" : 135,
            "type" : "VEC2"
        },
        {
            "bufferView" : 11,
            "componentType" : 5123,
            "count" : 624,
            "type" : "SCALAR"
        }
    ],
    "bufferViews" : [
        {
            "buffer" : 0,
            "byteLength" : 648,
            "byteOffset" : 0
        },
        {
            "buffer" : 0,
            "byteLength" : 648,
            "byteOffset" : 648
        },
        {
            "buffer" : 0,
            "byteLength" : 432,
            "byteOffset" : 1296
        },
        {
            "buffer" : 0,
            "byteLength" : 108,
            "byteOffset" : 1728
        },
        {
            "buffer" : 0,
            "byteLength" : 2064,
            "byteOffset" : 1836
        },
        {
            "buffer" : 0,
            "byteLength" : 2064,
            "byteOffset" : 3900
        },
        {
            "buffer" : 0,
            "byteLength" : 1376,
            "byteOffset" : 5964
        },
        {
            "buffer" : 0,
            "byteLength" : 480,
            "byteOffset" : 7340
        },
        {
            "buffer" : 0,
            "byteLength" : 1620,
            "byteOffset" : 7820
        },
        {
            "buffer" : 0,
            "byteLength" : 1620,
            "byteOffset" : 9440
        },
        {
            "buffer" : 0,
            "byteLength" : 1080,
            "byteOffset" : 11060
        },
        {
            "buffer" : 0,
            "byteLength" : 1248,
            "byteOffset" : 12140
        }
    ],
    "buffers" : [
        {
            "byteLength" : 13388,
            "uri" : "data:application/octet-stream;base64,"
        }
    ]
}
