{
    "asset" : {
        "generator" : "Khronos glTF Blender I/O v1.4.40",
        "version" : "2.0"
    },
    "scene" : 0,
    "scenes" : [
        {
            "name" : "Scene",
            "nodes" : [
                0,
                1
            ]
        }
    ],
    "nodes" : [
        {
            "mesh" : 0,
            "name" : "Temple",
            "rotation" : [
                0,
                0.5021719932556152,
                0,
                0.8647677898406982
            ],
            "scale" : [
                1.0615137815475464,
                1.0615137815475464,
                1.0615137815475464
            ]
        },
        {
            "mesh" : 1,
            "name" : "Temple_Base",
            "rotation" : [
                0,
                0.5021719932556152,
                0,
                0.8647677898406982
            ],
            "scale" : [
                1.0615137815475464,
                1.0615137815475464,
                1.0615137815475464
            ]
        }
    ],
    "materials" : [
        {
            "doubleSided" : true,
            "name" : "roof.002",
            "pbrMetallicRoughness" : {
                "baseColorFactor" : [
                    0.1169707328081131,
                    0.014443829655647278,
                    0.35153263807296753,
                    1
                ],
                "metallicFactor" : 0,
                "roughnessFactor" : 0.6911764740943909
            }
        },
        {
            "doubleSided" : true,
            "emissiveFactor" : [
                0.00515338871628046,
                0.00515338871628046,
                0.00515338871628046
            ],
            "name" : "doors.002",
            "pbrMetallicRoughness" : {
                "baseColorFactor" : [
                    0.01298303622752428,
                    0.0030352675821632147,
                    0.03189604729413986,
                    1
                ],
                "metallicFactor" : 0,
                "roughnessFactor" : 0.7058823704719543
            }
        },
        {
            "doubleSided" : true,
            "emissiveFactor" : [
                0.00515338871628046,
                0.00515338871628046,
                0.00515338871628046
            ],
            "name" : "doors",
            "pbrMetallicRoughness" : {
                "baseColorFactor" : [
                    0.01298303622752428,
                    0.0030352675821632147,
                    0.03189604729413986,
                    1
                ],
                "metallicFactor" : 0,
                "roughnessFactor" : 0.7058823704719543
            }
        },
        {
            "doubleSided" : true,
            "name" : "roof.001",
            "pbrMetallicRoughness" : {
                "baseColorFactor" : [
                    0.1169707328081131,
                    0.014443829655647278,
                    0.35153263807296753,
                    1
                ],
                "metallicFactor" : 0,
                "roughnessFactor" : 0.6911764740943909
            }
        },
        {
            "doubleSided" : true,
            "name" : "temple.001",
            "pbrMetallicRoughness" : {
                "baseColorFactor" : [
                    1,
                    0.687429666519165,
                    0.023718221113085747,
                    1
                ],
                "metallicFactor" : 0,
                "roughnessFactor" : 0.8823529481887817
            }
        }
    ],
    "meshes" : [
        {
            "name" : "Cube.014",
            "primitives" : [
                {
                    "attributes" : {
                        "POSITION" : 0,
                        "NORMAL" : 1,
                        "TEXCOORD_0" : 2,
                        "COLOR_0" : 3
                    },
                    "indices" : 4,
                    "material" : 0
                },
                {
                    "attributes" : {
                        "POSITION" : 5,
                        "NORMAL" : 6,
                        "TEXCOORD_0" : 7,
                        "COLOR_0" : 8
                    },
                    "indices" : 9,
                    "material" : 1
                },
                {
                    "attributes" : {
                        "POSITION" : 10,
                        "NORMAL" : 11,
                        "TEXCOORD_0" : 12,
                        "COLOR_0" : 13
                    },
                    "indices" : 14,
                    "material" : 2
                },
                {
                    "attributes" : {
                        "POSITION" : 15,
                        "NORMAL" : 16,
                        "TEXCOORD_0" : 17,
                        "COLOR_0" : 18
                    },
                    "indices" : 19,
                    "material" : 3
                }
            ]
        },
        {
            "name" : "Cube.001",
            "primitives" : [
                {
                    "attributes" : {
                        "POSITION" : 20,
                        "NORMAL" : 21,
                        "TEXCOORD_0" : 22,
                        "COLOR_0" : 23
                    },
                    "indices" : 24,
                    "material" : 4
                }
            ]
        }
    ],
    "accessors" : [
        {
            "bufferView" : 0,
            "componentType" : 5126,
            "count" : 860,
            "max" : [
                5.878334045410156,
                4.994930744171143,
                9.646463394165039
            ],
            "min" : [
                4.180369853973389,
                2.6633408069610596,
                3.894740581512451
            ],
            "type" : "VEC3"
        },
        {
            "bufferView" : 1,
            "componentType" : 5126,
            "count" : 860,
            "type" : "VEC3"
        },
        {
            "bufferView" : 2,
            "componentType" : 5126,
            "count" : 860,
            "type" : "VEC2"
        },
        {
            "bufferView" : 3,
            "componentType" : 5123,
            "count" : 860,
            "normalized" : true,
            "type" : "VEC4"
        },
        {
            "bufferView" : 4,
            "componentType" : 5123,
            "count" : 3336,
            "type" : "SCALAR"
        },
        {
            "bufferView" : 5,
            "componentType" : 5126,
            "count" : 464,
            "max" : [
                4.314136028289795,
                1.608601450920105,
                8.548160552978516
            ],
            "min" : [
                3.6843791007995605,
                -0.10570655763149261,
                4.993043422698975
            ],
            "type" : "VEC3"
        },
        {
            "bufferView" : 6,
            "componentType" : 5126,
            "count" : 464,
            "type" : "VEC3"
        },
        {
            "bufferView" : 7,
            "componentType" : 5126,
            "count" : 464,
            "type" : "VEC2"
        },
        {
            "bufferView" : 8,
            "componentType" : 5123,
            "count" : 464,
            "normalized" : true,
            "type" : "VEC4"
        },
        {
            "bufferView" : 9,
            "componentType" : 5123,
            "count" : 1458,
            "type" : "SCALAR"
        },
        {
            "bufferView" : 10,
            "componentType" : 5126,
            "count" : 895,
            "max" : [
                2.4827866554260254,
                3.7421681880950928,
                7.0045390129089355
            ],
            "min" : [
                -3.227144241333008,
                0.05931812524795532,
                -1.1944319009780884
            ],
            "type" : "VEC3"
        },
        {
            "bufferView" : 11,
            "componentType" : 5126,
            "count" : 895,
            "type" : "VEC3"
        },
        {
            "bufferView" : 12,
            "componentType" : 5126,
            "count" : 895,
            "type" : "VEC2"
        },
        {
            "bufferView" : 13,
            "componentType" : 5123,
            "count" : 895,
            "normalized" : true,
            "type" : "VEC4"
        },
        {
            "bufferView" : 14,
            "componentType" : 5123,
            "count" : 2430,
            "type" : "SCALAR"
        },
        {
            "bufferView" : 15,
            "componentType" : 5126,
            "count" : 1248,
            "max" : [
                3.8487491607666016,
                4.957905292510986,
                2.226137638092041
            ],
            "min" : [
                -1.2899713516235352,
                1.0547434091567993,
                -2.7543630599975586
            ],
            "type" : "VEC3"
        },
        {
            "bufferView" : 16,
            "componentType" : 5126,
            "count" : 1248,
            "type" : "VEC3"
        },
        {
            "bufferView" : 17,
            "componentType" : 5126,
            "count" : 1248,
            "type" : "VEC2"
        },
        {
            "bufferView" : 18,
            "componentType" : 5123,
            "count" : 1248,
            "normalized" : true,
            "type" : "VEC4"
        },
        {
            "bufferView" : 19,
            "componentType" : 5123,
            "count" : 3396,
            "type" : "SCALAR"
        },
        {
            "bufferView" : 20,
            "componentType" : 5126,
            "count" : 8099,
            "max" : [
                6.370227813720703,
                5.432285308837891,
                9.645088195800781
            ],
            "min" : [
                -3.715005397796631,
                -0.1276465654373169,
                -2.477088212966919
            ],
            "type" : "VEC3"
        },
        {
            "bufferView" : 21,
            "componentType" : 5126,
            "count" : 8099,
            "type" : "VEC3"
        },
        {
            "bufferView" : 22,
            "componentType" : 5126,
            "count" : 8099,
            "type" : "VEC2"
        },
        {
            "bufferView" : 23,
            "componentType" : 5123,
            "count" : 8099,
            "normalized" : true,
            "type" : "VEC4"
        },
        {
            "bufferView" : 24,
            "componentType" : 5123,
            "count" : 26508,
            "type" : "SCALAR"
        }
    ],
    "bufferViews" : [
        {
            "buffer" : 0,
            "byteLength" : 10320,
            "byteOffset" : 0
        },
        {
            "buffer" : 0,
            "byteLength" : 10320,
            "byteOffset" : 10320
        },
        {
            "buffer" : 0,
            "byteLength" : 6880,
            "byteOffset" : 20640
        },
        {
            "buffer" : 0,
            "byteLength" : 6880,
            "byteOffset" : 27520
        },
        {
            "buffer" : 0,
            "byteLength" : 6672,
            "byteOffset" : 34400
        },
        {
            "buffer" : 0,
            "byteLength" : 5568,
            "byteOffset" : 41072
        },
        {
            "buffer" : 0,
            "byteLength" : 5568,
            "byteOffset" : 46640
        },
        {
            "buffer" : 0,
            "byteLength" : 3712,
            "byteOffset" : 52208
        },
        {
            "buffer" : 0,
            "byteLength" : 3712,
            "byteOffset" : 55920
        },
        {
            "buffer" : 0,
            "byteLength" : 2916,
            "byteOffset" : 59632
        },
        {
            "buffer" : 0,
            "byteLength" : 10740,
            "byteOffset" : 62548
        },
        {
            "buffer" : 0,
            "byteLength" : 10740,
            "byteOffset" : 73288
        },
        {
            "buffer" : 0,
            "byteLength" : 7160,
            "byteOffset" : 84028
        },
        {
            "buffer" : 0,
            "byteLength" : 7160,
            "byteOffset" : 91188
        },
        {
            "buffer" : 0,
            "byteLength" : 4860,
            "byteOffset" : 98348
        },
        {
            "buffer" : 0,
            "byteLength" : 14976,
            "byteOffset" : 103208
        },
        {
            "buffer" : 0,
            "byteLength" : 14976,
            "byteOffset" : 118184
        },
        {
            "buffer" : 0,
            "byteLength" : 9984,
            "byteOffset" : 133160
        },
        {
            "buffer" : 0,
            "byteLength" : 9984,
            "byteOffset" : 143144
        },
        {
            "buffer" : 0,
            "byteLength" : 6792,
            "byteOffset" : 153128
        },
        {
            "buffer" : 0,
            "byteLength" : 97188,
            "byteOffset" : 159920
        },
        {
            "buffer" : 0,
            "byteLength" : 97188,
            "byteOffset" : 257108
        },
        {
            "buffer" : 0,
            "byteLength" : 64792,
            "byteOffset" : 354296
        },
        {
            "buffer" : 0,
            "byteLength" : 64792,
            "byteOffset" : 419088
        },
        {
            "buffer" : 0,
            "byteLength" : 53016,
            "byteOffset" : 483880
        }
    ],
    "buffers" : [
        {
            "byteLength" : 536896,
            "uri" : "data:application/octet-stream;base64,"
        }
    ]
}
