{
    "asset" : {
        "generator" : "Khronos glTF Blender I/O v1.5.17",
        "version" : "2.0"
    },
    "scene" : 0,
    "scenes" : [
        {
            "name" : "Scene",
            "nodes" : [
                0,
                1,
                2
            ]
        }
    ],
    "nodes" : [
        {
            "mesh" : 0,
            "name" : "temple02",
            "rotation" : [
                0,
                0.5021719932556152,
                0,
                0.8647677898406982
            ],
            "scale" : [
                1.0615137815475464,
                1.0615137815475464,
                1.0615137815475464
            ],
            "translation" : [
                0.0015225410461425781,
                -0.15865278244018555,
                -0.01639723777770996
            ]
        },
        {
            "mesh" : 1,
            "name" : "temple03",
            "scale" : [
                1.6105579137802124,
                1.5496426820755005,
                1.6105579137802124
            ],
            "translation" : [
                0.0015225410461425781,
                -0.15865278244018555,
                -0.016397476196289062
            ]
        },
        {
            "mesh" : 2,
            "name" : "temple01",
            "rotation" : [
                0,
                0.1895066797733307,
                0,
                0.9818795323371887
            ],
            "scale" : [
                2.007619619369507,
                1.9316866397857666,
                2.007619619369507
            ],
            "translation" : [
                0.0015225410461425781,
                -0.15865276753902435,
                -0.016397595405578613
            ]
        }
    ],
    "materials" : [
        {
            "doubleSided" : true,
            "emissiveFactor" : [
                0.9821062088012695,
                1,
                0
            ],
            "name" : "temple.001",
            "pbrMetallicRoughness" : {
                "baseColorFactor" : [
                    1,
                    0.9826356768608093,
                    0.40398579835891724,
                    1
                ],
                "metallicFactor" : 0,
                "roughnessFactor" : 0.8823529481887817
            }
        },
        {
            "doubleSided" : true,
            "emissiveFactor" : [
                0.11629568785429001,
                0.014377397485077381,
                0.34939518570899963
            ],
            "name" : "roof.002",
            "pbrMetallicRoughness" : {
                "baseColorFactor" : [
                    0.002208264544606209,
                    0,
                    0.868606448173523,
                    1
                ],
                "metallicFactor" : 0,
                "roughnessFactor" : 0.6911764740943909
            }
        },
        {
            "doubleSided" : true,
            "emissiveFactor" : [
                0.00515338871628046,
                0.00515338871628046,
                0.00515338871628046
            ],
            "name" : "doors.002",
            "pbrMetallicRoughness" : {
                "baseColorFactor" : [
                    0.18961018323898315,
                    0.09358997642993927,
                    0.2758764624595642,
                    1
                ],
                "metallicFactor" : 0,
                "roughnessFactor" : 0.7058823704719543
            }
        },
        {
            "doubleSided" : true,
            "emissiveFactor" : [
                0.00515338871628046,
                0.00515338871628046,
                0.00515338871628046
            ],
            "name" : "doors",
            "pbrMetallicRoughness" : {
                "baseColorFactor" : [
                    0.18961018323898315,
                    0.09358997642993927,
                    0.2758764624595642,
                    1
                ],
                "metallicFactor" : 0,
                "roughnessFactor" : 0.7058823704719543
            }
        },
        {
            "doubleSided" : true,
            "emissiveFactor" : [
                0.11629568785429001,
                0.014377397485077381,
                0.34939518570899963
            ],
            "name" : "roof.001",
            "pbrMetallicRoughness" : {
                "baseColorFactor" : [
                    0.002208264544606209,
                    0,
                    0.868606448173523,
                    1
                ],
                "metallicFactor" : 0,
                "roughnessFactor" : 0.6911764740943909
            }
        }
    ],
    "meshes" : [
        {
            "name" : "Cube.014",
            "primitives" : [
                {
                    "attributes" : {
                        "POSITION" : 0,
                        "NORMAL" : 1,
                        "TEXCOORD_0" : 2,
                        "COLOR_0" : 3
                    },
                    "indices" : 4,
                    "material" : 0
                },
                {
                    "attributes" : {
                        "POSITION" : 5,
                        "NORMAL" : 6,
                        "TEXCOORD_0" : 7,
                        "COLOR_0" : 8
                    },
                    "indices" : 9,
                    "material" : 1
                },
                {
                    "attributes" : {
                        "POSITION" : 10,
                        "NORMAL" : 11,
                        "TEXCOORD_0" : 12,
                        "COLOR_0" : 13
                    },
                    "indices" : 14,
                    "material" : 2
                }
            ]
        },
        {
            "name" : "Circle.001",
            "primitives" : [
                {
                    "attributes" : {
                        "POSITION" : 15,
                        "NORMAL" : 16,
                        "TEXCOORD_0" : 17,
                        "COLOR_0" : 18
                    },
                    "indices" : 19,
                    "material" : 3
                },
                {
                    "attributes" : {
                        "POSITION" : 20,
                        "NORMAL" : 21,
                        "TEXCOORD_0" : 22,
                        "COLOR_0" : 23
                    },
                    "indices" : 24,
                    "material" : 0
                }
            ]
        },
        {
            "name" : "Circle.016",
            "primitives" : [
                {
                    "attributes" : {
                        "POSITION" : 25,
                        "NORMAL" : 26,
                        "TEXCOORD_0" : 27,
                        "COLOR_0" : 28
                    },
                    "indices" : 29,
                    "material" : 0
                },
                {
                    "attributes" : {
                        "POSITION" : 30,
                        "NORMAL" : 31,
                        "TEXCOORD_0" : 32,
                        "COLOR_0" : 33
                    },
                    "indices" : 34,
                    "material" : 4
                },
                {
                    "attributes" : {
                        "POSITION" : 35,
                        "NORMAL" : 36,
                        "TEXCOORD_0" : 37,
                        "COLOR_0" : 38
                    },
                    "indices" : 39,
                    "material" : 3
                }
            ]
        }
    ],
    "accessors" : [
        {
            "bufferView" : 0,
            "componentType" : 5126,
            "count" : 2057,
            "max" : [
                6.892009258270264,
                5.5798563957214355,
                10.590574264526367
            ],
            "min" : [
                3.4455583095550537,
                0.03885793685913086,
                4.8416008949279785
            ],
            "type" : "VEC3"
        },
        {
            "bufferView" : 1,
            "componentType" : 5126,
            "count" : 2057,
            "type" : "VEC3"
        },
        {
            "bufferView" : 2,
            "componentType" : 5126,
            "count" : 2057,
            "type" : "VEC2"
        },
        {
            "bufferView" : 3,
            "componentType" : 5123,
            "count" : 2057,
            "normalized" : true,
            "type" : "VEC4"
        },
        {
            "bufferView" : 4,
            "componentType" : 5123,
            "count" : 7200,
            "type" : "SCALAR"
        },
        {
            "bufferView" : 5,
            "componentType" : 5126,
            "count" : 807,
            "max" : [
                6.400115489959717,
                5.144389629364014,
                10.591949462890625
            ],
            "min" : [
                4.702151298522949,
                2.8127996921539307,
                4.840226173400879
            ],
            "type" : "VEC3"
        },
        {
            "bufferView" : 6,
            "componentType" : 5126,
            "count" : 807,
            "type" : "VEC3"
        },
        {
            "bufferView" : 7,
            "componentType" : 5126,
            "count" : 807,
            "type" : "VEC2"
        },
        {
            "bufferView" : 8,
            "componentType" : 5123,
            "count" : 807,
            "normalized" : true,
            "type" : "VEC4"
        },
        {
            "bufferView" : 9,
            "componentType" : 5123,
            "count" : 3336,
            "type" : "SCALAR"
        },
        {
            "bufferView" : 10,
            "componentType" : 5126,
            "count" : 426,
            "max" : [
                4.8359174728393555,
                1.7580604553222656,
                9.493646621704102
            ],
            "min" : [
                4.206160545349121,
                0.043752431869506836,
                5.938529014587402
            ],
            "type" : "VEC3"
        },
        {
            "bufferView" : 11,
            "componentType" : 5126,
            "count" : 426,
            "type" : "VEC3"
        },
        {
            "bufferView" : 12,
            "componentType" : 5126,
            "count" : 426,
            "type" : "VEC2"
        },
        {
            "bufferView" : 13,
            "componentType" : 5123,
            "count" : 426,
            "normalized" : true,
            "type" : "VEC4"
        },
        {
            "bufferView" : 14,
            "componentType" : 5123,
            "count" : 1458,
            "type" : "SCALAR"
        },
        {
            "bufferView" : 15,
            "componentType" : 5126,
            "count" : 162,
            "max" : [
                3.7843210697174072,
                0.93304044008255,
                3.971781015396118
            ],
            "min" : [
                3.3299832344055176,
                0.14301347732543945,
                3.896643877029419
            ],
            "type" : "VEC3"
        },
        {
            "bufferView" : 16,
            "componentType" : 5126,
            "count" : 162,
            "type" : "VEC3"
        },
        {
            "bufferView" : 17,
            "componentType" : 5126,
            "count" : 162,
            "type" : "VEC2"
        },
        {
            "bufferView" : 18,
            "componentType" : 5123,
            "count" : 162,
            "normalized" : true,
            "type" : "VEC4"
        },
        {
            "bufferView" : 19,
            "componentType" : 5123,
            "count" : 486,
            "type" : "SCALAR"
        },
        {
            "bufferView" : 20,
            "componentType" : 5126,
            "count" : 4153,
            "max" : [
                5.161282539367676,
                3.070927619934082,
                4.219085216522217
            ],
            "min" : [
                1.9447336196899414,
                0.015431158244609833,
                0.8388972282409668
            ],
            "type" : "VEC3"
        },
        {
            "bufferView" : 21,
            "componentType" : 5126,
            "count" : 4153,
            "type" : "VEC3"
        },
        {
            "bufferView" : 22,
            "componentType" : 5126,
            "count" : 4153,
            "type" : "VEC2"
        },
        {
            "bufferView" : 23,
            "componentType" : 5123,
            "count" : 4153,
            "normalized" : true,
            "type" : "VEC4"
        },
        {
            "bufferView" : 24,
            "componentType" : 5123,
            "count" : 15384,
            "type" : "SCALAR"
        },
        {
            "bufferView" : 25,
            "componentType" : 5126,
            "count" : 837,
            "max" : [
                2.197551727294922,
                3.0673186779022217,
                1.0602617263793945
            ],
            "min" : [
                -0.3879127502441406,
                0.011986508965492249,
                -1.2413734197616577
            ],
            "type" : "VEC3"
        },
        {
            "bufferView" : 26,
            "componentType" : 5126,
            "count" : 837,
            "type" : "VEC3"
        },
        {
            "bufferView" : 27,
            "componentType" : 5126,
            "count" : 837,
            "type" : "VEC2"
        },
        {
            "bufferView" : 28,
            "componentType" : 5123,
            "count" : 837,
            "normalized" : true,
            "type" : "VEC4"
        },
        {
            "bufferView" : 29,
            "componentType" : 5123,
            "count" : 3924,
            "type" : "SCALAR"
        },
        {
            "bufferView" : 30,
            "componentType" : 5126,
            "count" : 913,
            "max" : [
                2.2978720664978027,
                2.8066341876983643,
                1.150443434715271
            ],
            "min" : [
                -0.4882326126098633,
                0.6617416143417358,
                -1.3745568990707397
            ],
            "type" : "VEC3"
        },
        {
            "bufferView" : 31,
            "componentType" : 5126,
            "count" : 913,
            "type" : "VEC3"
        },
        {
            "bufferView" : 32,
            "componentType" : 5126,
            "count" : 913,
            "type" : "VEC2"
        },
        {
            "bufferView" : 33,
            "componentType" : 5123,
            "count" : 913,
            "normalized" : true,
            "type" : "VEC4"
        },
        {
            "bufferView" : 34,
            "componentType" : 5123,
            "count" : 3396,
            "type" : "SCALAR"
        },
        {
            "bufferView" : 35,
            "componentType" : 5126,
            "count" : 404,
            "max" : [
                2.0390748977661133,
                2.1385538578033447,
                0.6380013227462769
            ],
            "min" : [
                -0.22545433044433594,
                0.1386696994304657,
                0.006192803382873535
            ],
            "type" : "VEC3"
        },
        {
            "bufferView" : 36,
            "componentType" : 5126,
            "count" : 404,
            "type" : "VEC3"
        },
        {
            "bufferView" : 37,
            "componentType" : 5126,
            "count" : 404,
            "type" : "VEC2"
        },
        {
            "bufferView" : 38,
            "componentType" : 5123,
            "count" : 404,
            "normalized" : true,
            "type" : "VEC4"
        },
        {
            "bufferView" : 39,
            "componentType" : 5123,
            "count" : 1944,
            "type" : "SCALAR"
        }
    ],
    "bufferViews" : [
        {
            "buffer" : 0,
            "byteLength" : 24684,
            "byteOffset" : 0
        },
        {
            "buffer" : 0,
            "byteLength" : 24684,
            "byteOffset" : 24684
        },
        {
            "buffer" : 0,
            "byteLength" : 16456,
            "byteOffset" : 49368
        },
        {
            "buffer" : 0,
            "byteLength" : 16456,
            "byteOffset" : 65824
        },
        {
            "buffer" : 0,
            "byteLength" : 14400,
            "byteOffset" : 82280
        },
        {
            "buffer" : 0,
            "byteLength" : 9684,
            "byteOffset" : 96680
        },
        {
            "buffer" : 0,
            "byteLength" : 9684,
            "byteOffset" : 106364
        },
        {
            "buffer" : 0,
            "byteLength" : 6456,
            "byteOffset" : 116048
        },
        {
            "buffer" : 0,
            "byteLength" : 6456,
            "byteOffset" : 122504
        },
        {
            "buffer" : 0,
            "byteLength" : 6672,
            "byteOffset" : 128960
        },
        {
            "buffer" : 0,
            "byteLength" : 5112,
            "byteOffset" : 135632
        },
        {
            "buffer" : 0,
            "byteLength" : 5112,
            "byteOffset" : 140744
        },
        {
            "buffer" : 0,
            "byteLength" : 3408,
            "byteOffset" : 145856
        },
        {
            "buffer" : 0,
            "byteLength" : 3408,
            "byteOffset" : 149264
        },
        {
            "buffer" : 0,
            "byteLength" : 2916,
            "byteOffset" : 152672
        },
        {
            "buffer" : 0,
            "byteLength" : 1944,
            "byteOffset" : 155588
        },
        {
            "buffer" : 0,
            "byteLength" : 1944,
            "byteOffset" : 157532
        },
        {
            "buffer" : 0,
            "byteLength" : 1296,
            "byteOffset" : 159476
        },
        {
            "buffer" : 0,
            "byteLength" : 1296,
            "byteOffset" : 160772
        },
        {
            "buffer" : 0,
            "byteLength" : 972,
            "byteOffset" : 162068
        },
        {
            "buffer" : 0,
            "byteLength" : 49836,
            "byteOffset" : 163040
        },
        {
            "buffer" : 0,
            "byteLength" : 49836,
            "byteOffset" : 212876
        },
        {
            "buffer" : 0,
            "byteLength" : 33224,
            "byteOffset" : 262712
        },
        {
            "buffer" : 0,
            "byteLength" : 33224,
            "byteOffset" : 295936
        },
        {
            "buffer" : 0,
            "byteLength" : 30768,
            "byteOffset" : 329160
        },
        {
            "buffer" : 0,
            "byteLength" : 10044,
            "byteOffset" : 359928
        },
        {
            "buffer" : 0,
            "byteLength" : 10044,
            "byteOffset" : 369972
        },
        {
            "buffer" : 0,
            "byteLength" : 6696,
            "byteOffset" : 380016
        },
        {
            "buffer" : 0,
            "byteLength" : 6696,
            "byteOffset" : 386712
        },
        {
            "buffer" : 0,
            "byteLength" : 7848,
            "byteOffset" : 393408
        },
        {
            "buffer" : 0,
            "byteLength" : 10956,
            "byteOffset" : 401256
        },
        {
            "buffer" : 0,
            "byteLength" : 10956,
            "byteOffset" : 412212
        },
        {
            "buffer" : 0,
            "byteLength" : 7304,
            "byteOffset" : 423168
        },
        {
            "buffer" : 0,
            "byteLength" : 7304,
            "byteOffset" : 430472
        },
        {
            "buffer" : 0,
            "byteLength" : 6792,
            "byteOffset" : 437776
        },
        {
            "buffer" : 0,
            "byteLength" : 4848,
            "byteOffset" : 444568
        },
        {
            "buffer" : 0,
            "byteLength" : 4848,
            "byteOffset" : 449416
        },
        {
            "buffer" : 0,
            "byteLength" : 3232,
            "byteOffset" : 454264
        },
        {
            "buffer" : 0,
            "byteLength" : 3232,
            "byteOffset" : 457496
        },
        {
            "buffer" : 0,
            "byteLength" : 3888,
            "byteOffset" : 460728
        }
    ],
    "buffers" : [
        {
            "byteLength" : 464616,
            "uri" : "data:application/octet-stream;base64,"
        }
    ]
}
