{
  "accessors": [
    {
      "bufferView": 1,
      "componentType": 5126,
      "count": 19701,
      "max": [
        0.26860988140106201,
        0.30396479368209839,
        0.29247534275054932
      ],
      "min": [
        -0.26861628890037537,
        -0.23561105132102966,
        -0.32336980104446411
      ],
      "type": "VEC3"
    },
    {
      "bufferView": 1,
      "byteOffset": 236412,
      "componentType": 5126,
      "count": 19701,
      "max": [
        0.99990427494049072,
        0.99999821186065674,
        0.99970459938049316
      ],
      "min": [
        -0.99998593330383301,
        -0.99999332427978516,
        -0.99985361099243164
      ],
      "type": "VEC3"
    },
    {
      "bufferView": 2,
      "componentType": 5126,
      "count": 19701,
      "max": [
        0.97647058963775635,
        0.86666667461395264,
        0.95686274766921997,
        1
      ],
      "min": [
        0.18039216101169586,
        0.062745101749897003,
        0,
        1
      ],
      "type": "VEC4"
    },
    {
      "bufferView": 0,
      "componentType": 5125,
      "count": 118206,
      "max": [
        19700
      ],
      "min": [
        0
      ],
      "type": "SCALAR"
    }
  ],
  "asset": {
    "extras": {
      "author": "alecz1k (https://sketchfab.com/alecz1k)",
      "license": "CC-BY-NC-4.0 (http://creativecommons.org/licenses/by-nc/4.0/)",
      "source": "https://sketchfab.com/models/6a9b126f1972450ab8db09641e8548b6",
      "title": "Emoji CryCry"
    },
    "generator": "Sketchfab-4.30.2",
    "version": "2.0"
  },
  "bufferViews": [
    {
      "buffer": 0,
      "byteLength": 472824,
      "byteOffset": 0,
      "name": "floatBufferViews",
      "target": 34963
    },
    {
      "buffer": 0,
      "byteLength": 472824,
      "byteOffset": 472824,
      "byteStride": 12,
      "name": "floatBufferViews",
      "target": 34962
    },
    {
      "buffer": 0,
      "byteLength": 315216,
      "byteOffset": 945648,
      "byteStride": 16,
      "name": "floatBufferViews",
      "target": 34962
    }
  ],
  "buffers": [
    {
      "byteLength": 1260864,
      "uri": "scene.bin"
    }
  ],
  "extensionsUsed": [
    "KHR_materials_unlit"
  ],
  "materials": [
    {
      "doubleSided": true,
      "extensions": {
        "KHR_materials_unlit": {}
      },
      "name": "Scene_-_Root",
      "pbrMetallicRoughness": {
        "baseColorFactor": [
          1,
          1,
          1,
          1
        ],
        "metallicFactor": 0,
        "roughnessFactor": 1
      }
    }
  ],
  "meshes": [
    {
      "name": "Layer_1__0",
      "primitives": [
        {
          "attributes": {
            "COLOR_0": 2,
            "NORMAL": 1,
            "POSITION": 0
          },
          "indices": 3,
          "material": 0,
          "mode": 4
        }
      ]
    }
  ],
  "nodes": [
    {
      "children": [
        1
      ],
      "name": "RootNode (gltf orientation matrix)",
      "rotation": [
        -0.70710678118654746,
        -0,
        -0,
        0.70710678118654757
      ]
    },
    {
      "children": [
        2
      ],
      "matrix": [
        1,
        0,
        0,
        0,
        0,
        -0.96232366561889648,
        0.27190655469894409,
        0,
        0,
        -0.27190655469894409,
        -0.96232366561889648,
        0,
        0,
        -0.062865883111953735,
        0.039605379104614258,
        1
      ],
      "name": "RootNode (model correction matrix)"
    },
    {
      "children": [
        3
      ],
      "matrix": [
        1,
        0,
        0,
        0,
        0,
        -1,
        0,
        0,
        0,
        0,
        -1,
        0,
        0,
        0,
        0,
        1
      ],
      "name": "8c10dae61da54e5a9d2c8a21758f322c.fbx"
    },
    {
      "children": [
        4
      ],
      "name": "RootNode"
    },
    {
      "children": [
        5
      ],
      "name": "Layer_1"
    },
    {
      "mesh": 0,
      "name": "Layer_1__0"
    }
  ],
  "scene": 0,
  "scenes": [
    {
      "name": "OSG_Scene",
      "nodes": [
        0
      ]
    }
  ]
}

