{
    "asset" : {
        "generator" : "Khronos glTF Blender I/O v1.7.17",
        "version" : "2.0"
    },
    "scene" : 0,
    "scenes" : [
        {
            "name" : "Scene",
            "nodes" : [
                18
            ]
        }
    ],
    "nodes" : [
        {
            "name" : "Head",
            "rotation" : [
                -2.7467331165098585e-07,
                7.524745271325628e-09,
                -0.00035750443930737674,
                0.9999999403953552
            ],
            "scale" : [
                1,
                0.9999999403953552,
                0.9999999403953552
            ],
            "translation" : [
                7.745773800138522e-09,
                0.6277158260345459,
                7.080197295420906e-14
            ]
        },
        {
            "children" : [
                0
            ],
            "name" : "Bone.001",
            "rotation" : [
                2.7469772589938657e-07,
                -3.730813702418345e-08,
                -0.0012687777634710073,
                0.9999992847442627
            ],
            "scale" : [
                1,
                0.9999999403953552,
                1
            ],
            "translation" : [
                7.450580596923828e-09,
                2.6949305534362793,
                2.220446049250313e-16
            ]
        },
        {
            "name" : "Bone.015",
            "rotation" : [
                3.0756712732227243e-09,
                6.477587533026963e-08,
                -0.01265515573322773,
                0.9999200105667114
            ],
            "translation" : [
                2.4756752203813903e-09,
                2.090238332748413,
                -1.2770786896520656e-14
            ]
        },
        {
            "children" : [
                2
            ],
            "name" : "lower arm_L",
            "rotation" : [
                4.2900250019073383e-10,
                6.487993697845695e-09,
                -0.002497604815289378,
                0.9999969005584717
            ],
            "scale" : [
                1,
                0.9999998807907104,
                0.9999999403953552
            ],
            "translation" : [
                1.5572858558243752e-08,
                1.0802639722824097,
                3.444212146389014e-14
            ]
        },
        {
            "children" : [
                3
            ],
            "name" : "upper arm_L",
            "rotation" : [
                -4.293949085187876e-10,
                6.70564901383841e-08,
                0.004371637478470802,
                0.9999904632568359
            ],
            "scale" : [
                1.0000001192092896,
                1.0000001192092896,
                1
            ],
            "translation" : [
                -2.758842754246871e-07,
                2.075878381729126,
                2.9162846318592575e-14
            ]
        },
        {
            "children" : [
                4
            ],
            "name" : "Chest_L",
            "rotation" : [
                7.930053413929272e-08,
                3.7887822657012293e-08,
                -0.7095776200294495,
                0.7046273350715637
            ],
            "translation" : [
                1.4900979117271618e-08,
                2.6949305534362793,
                6.540735479138504e-16
            ]
        },
        {
            "name" : "Bone.016",
            "rotation" : [
                2.5409359061256964e-09,
                -4.984105217431534e-08,
                -0.018813326954841614,
                0.9998230338096619
            ],
            "translation" : [
                2.5687626248327433e-07,
                2.1403369903564453,
                2.595951340174374e-14
            ]
        },
        {
            "children" : [
                6
            ],
            "name" : "lower arm_R",
            "rotation" : [
                -7.718334305018004e-10,
                -1.9738755074882874e-09,
                0.004129991866648197,
                0.9999914765357971
            ],
            "scale" : [
                1,
                1,
                0.9999999403953552
            ],
            "translation" : [
                -1.0617077350616455e-07,
                1.2194924354553223,
                -8.770761894538737e-15
            ]
        },
        {
            "children" : [
                7
            ],
            "name" : "Upper arm_R",
            "rotation" : [
                1.159177864806793e-09,
                4.0602095907615876e-08,
                -0.007818817161023617,
                0.9999694228172302
            ],
            "scale" : [
                1.0000001192092896,
                1.0000001192092896,
                1
            ],
            "translation" : [
                -5.21540641784668e-08,
                1.9363634586334229,
                7.771561172376096e-15
            ]
        },
        {
            "children" : [
                8
            ],
            "name" : "Chest_R",
            "rotation" : [
                -1.2155642714617443e-08,
                -3.074064736097171e-08,
                0.7121669054031372,
                0.7020102143287659
            ],
            "scale" : [
                1.0000001192092896,
                1.0000001192092896,
                1
            ],
            "translation" : [
                -3.4237352952715128e-09,
                2.6949307918548584,
                -1.1744067344451143e-15
            ]
        },
        {
            "children" : [
                1,
                5,
                9
            ],
            "name" : "Chest",
            "rotation" : [
                -7.668869983490367e-09,
                2.929105846760649e-08,
                0.0016262817662209272,
                0.9999986886978149
            ],
            "scale" : [
                0.9999999403953552,
                0.9999999403953552,
                0.9999998807907104
            ],
            "translation" : [
                0.07888882607221603,
                0.01753085106611252,
                2.3554238559597707e-09
            ]
        },
        {
            "name" : "Upper leg_L",
            "translation" : [
                0,
                1.7018823623657227,
                0
            ]
        },
        {
            "children" : [
                11
            ],
            "name" : "Lower Leg_L",
            "translation" : [
                1.1450872421264648,
                -2.5615923404693604,
                -2.913119772074424e-07
            ]
        },
        {
            "name" : "Upper leg_R",
            "translation" : [
                0,
                1.7018823623657227,
                0
            ]
        },
        {
            "children" : [
                13
            ],
            "name" : "Lower leg_R",
            "translation" : [
                -0.9293973445892334,
                -2.5615923404693604,
                -2.913119772074424e-07
            ]
        },
        {
            "name" : "Bone.013",
            "rotation" : [
                1,
                0,
                0,
                0
            ],
            "translation" : [
                1.1450872421264648,
                -2.5615923404693604,
                -2.913119772074424e-07
            ]
        },
        {
            "name" : "Bone.014",
            "rotation" : [
                1,
                0,
                0,
                0
            ],
            "translation" : [
                -0.9293973445892334,
                -2.5615923404693604,
                -2.913119772074424e-07
            ]
        },
        {
            "mesh" : 0,
            "name" : "Father",
            "skin" : 0
        },
        {
            "children" : [
                17,
                10,
                12,
                14,
                15,
                16
            ],
            "name" : "Armature",
            "translation" : [
                -0.05176129937171936,
                2.894655227661133,
                -0.009008169174194336
            ]
        }
    ],
    "materials" : [
        {
            "doubleSided" : true,
            "emissiveFactor" : [
                1,
                1,
                1
            ],
            "name" : "Character",
            "pbrMetallicRoughness" : {
                "baseColorFactor" : [
                    0.8631572127342224,
                    0.8962693810462952,
                    0.003676506457850337,
                    1
                ],
                "metallicFactor" : 0,
                "roughnessFactor" : 0.7013888955116272
            }
        },
        {
            "doubleSided" : true,
            "emissiveFactor" : [
                0.031273942440748215,
                0.029160484671592712,
                0.1451391577720642
            ],
            "name" : "glasses",
            "pbrMetallicRoughness" : {
                "baseColorFactor" : [
                    0.07122806459665298,
                    0.07081817835569382,
                    0.12823925912380219,
                    1
                ],
                "metallicFactor" : 0,
                "roughnessFactor" : 0.7426470518112183
            }
        },
        {
            "doubleSided" : true,
            "name" : "Moustache",
            "pbrMetallicRoughness" : {
                "baseColorFactor" : [
                    0.5312091112136841,
                    0.5312091112136841,
                    0.5312091112136841,
                    1
                ],
                "metallicFactor" : 0,
                "roughnessFactor" : 0.5
            }
        }
    ],
    "meshes" : [
        {
            "name" : "Cube.007",
            "primitives" : [
                {
                    "attributes" : {
                        "POSITION" : 0,
                        "NORMAL" : 1,
                        "TEXCOORD_0" : 2,
                        "COLOR_0" : 3,
                        "JOINTS_0" : 4,
                        "WEIGHTS_0" : 5
                    },
                    "indices" : 6,
                    "material" : 0
                },
                {
                    "attributes" : {
                        "POSITION" : 7,
                        "NORMAL" : 8,
                        "TEXCOORD_0" : 9,
                        "COLOR_0" : 10,
                        "JOINTS_0" : 11,
                        "WEIGHTS_0" : 12
                    },
                    "indices" : 13,
                    "material" : 1
                },
                {
                    "attributes" : {
                        "POSITION" : 14,
                        "NORMAL" : 15,
                        "TEXCOORD_0" : 16,
                        "COLOR_0" : 17,
                        "JOINTS_0" : 18,
                        "WEIGHTS_0" : 19
                    },
                    "indices" : 20,
                    "material" : 2
                }
            ]
        }
    ],
    "skins" : [
        {
            "inverseBindMatrices" : 21,
            "joints" : [
                10,
                1,
                0,
                5,
                4,
                3,
                2,
                9,
                8,
                7,
                6,
                12,
                11,
                14,
                13,
                15,
                16
            ],
            "name" : "Armature"
        }
    ],
    "accessors" : [
        {
            "bufferView" : 0,
            "componentType" : 5126,
            "count" : 830,
            "max" : [
                5.527220249176025,
                11.716492652893066,
                2.8191280364990234
            ],
            "min" : [
                -5.427184581756592,
                0.24592123925685883,
                -2.9205548763275146
            ],
            "type" : "VEC3"
        },
        {
            "bufferView" : 1,
            "componentType" : 5126,
            "count" : 830,
            "type" : "VEC3"
        },
        {
            "bufferView" : 2,
            "componentType" : 5126,
            "count" : 830,
            "type" : "VEC2"
        },
        {
            "bufferView" : 3,
            "componentType" : 5123,
            "count" : 830,
            "normalized" : true,
            "type" : "VEC4"
        },
        {
            "bufferView" : 4,
            "componentType" : 5121,
            "count" : 830,
            "type" : "VEC4"
        },
        {
            "bufferView" : 5,
            "componentType" : 5126,
            "count" : 830,
            "type" : "VEC4"
        },
        {
            "bufferView" : 6,
            "componentType" : 5123,
            "count" : 4800,
            "type" : "SCALAR"
        },
        {
            "bufferView" : 7,
            "componentType" : 5126,
            "count" : 529,
            "max" : [
                3.0706722736358643,
                10.228678703308105,
                3.044962167739868
            ],
            "min" : [
                -3.196977376937866,
                8.026487350463867,
                -0.5936734676361084
            ],
            "type" : "VEC3"
        },
        {
            "bufferView" : 8,
            "componentType" : 5126,
            "count" : 529,
            "type" : "VEC3"
        },
        {
            "bufferView" : 9,
            "componentType" : 5126,
            "count" : 529,
            "type" : "VEC2"
        },
        {
            "bufferView" : 10,
            "componentType" : 5123,
            "count" : 529,
            "normalized" : true,
            "type" : "VEC4"
        },
        {
            "bufferView" : 11,
            "componentType" : 5121,
            "count" : 529,
            "type" : "VEC4"
        },
        {
            "bufferView" : 12,
            "componentType" : 5126,
            "count" : 529,
            "type" : "VEC4"
        },
        {
            "bufferView" : 13,
            "componentType" : 5123,
            "count" : 2502,
            "type" : "SCALAR"
        },
        {
            "bufferView" : 14,
            "componentType" : 5126,
            "count" : 141,
            "max" : [
                1.4624168872833252,
                8.108030319213867,
                2.957296133041382
            ],
            "min" : [
                -1.5659396648406982,
                7.344814300537109,
                2.4913158416748047
            ],
            "type" : "VEC3"
        },
        {
            "bufferView" : 15,
            "componentType" : 5126,
            "count" : 141,
            "type" : "VEC3"
        },
        {
            "bufferView" : 16,
            "componentType" : 5126,
            "count" : 141,
            "type" : "VEC2"
        },
        {
            "bufferView" : 17,
            "componentType" : 5123,
            "count" : 141,
            "normalized" : true,
            "type" : "VEC4"
        },
        {
            "bufferView" : 18,
            "componentType" : 5121,
            "count" : 141,
            "type" : "VEC4"
        },
        {
            "bufferView" : 19,
            "componentType" : 5126,
            "count" : 141,
            "type" : "VEC4"
        },
        {
            "bufferView" : 20,
            "componentType" : 5123,
            "count" : 636,
            "type" : "SCALAR"
        },
        {
            "bufferView" : 21,
            "componentType" : 5126,
            "count" : 17,
            "type" : "MAT4"
        }
    ],
    "bufferViews" : [
        {
            "buffer" : 0,
            "byteLength" : 9960,
            "byteOffset" : 0
        },
        {
            "buffer" : 0,
            "byteLength" : 9960,
            "byteOffset" : 9960
        },
        {
            "buffer" : 0,
            "byteLength" : 6640,
            "byteOffset" : 19920
        },
        {
            "buffer" : 0,
            "byteLength" : 6640,
            "byteOffset" : 26560
        },
        {
            "buffer" : 0,
            "byteLength" : 3320,
            "byteOffset" : 33200
        },
        {
            "buffer" : 0,
            "byteLength" : 13280,
            "byteOffset" : 36520
        },
        {
            "buffer" : 0,
            "byteLength" : 9600,
            "byteOffset" : 49800
        },
        {
            "buffer" : 0,
            "byteLength" : 6348,
            "byteOffset" : 59400
        },
        {
            "buffer" : 0,
            "byteLength" : 6348,
            "byteOffset" : 65748
        },
        {
            "buffer" : 0,
            "byteLength" : 4232,
            "byteOffset" : 72096
        },
        {
            "buffer" : 0,
            "byteLength" : 4232,
            "byteOffset" : 76328
        },
        {
            "buffer" : 0,
            "byteLength" : 2116,
            "byteOffset" : 80560
        },
        {
            "buffer" : 0,
            "byteLength" : 8464,
            "byteOffset" : 82676
        },
        {
            "buffer" : 0,
            "byteLength" : 5004,
            "byteOffset" : 91140
        },
        {
            "buffer" : 0,
            "byteLength" : 1692,
            "byteOffset" : 96144
        },
        {
            "buffer" : 0,
            "byteLength" : 1692,
            "byteOffset" : 97836
        },
        {
            "buffer" : 0,
            "byteLength" : 1128,
            "byteOffset" : 99528
        },
        {
            "buffer" : 0,
            "byteLength" : 1128,
            "byteOffset" : 100656
        },
        {
            "buffer" : 0,
            "byteLength" : 564,
            "byteOffset" : 101784
        },
        {
            "buffer" : 0,
            "byteLength" : 2256,
            "byteOffset" : 102348
        },
        {
            "buffer" : 0,
            "byteLength" : 1272,
            "byteOffset" : 104604
        },
        {
            "buffer" : 0,
            "byteLength" : 1088,
            "byteOffset" : 105876
        }
    ],
    "buffers" : [
        {
            "byteLength" : 106964,
            "uri" : "data:application/octet-stream;base64,"
        }
    ]
}
