{
    "asset" : {
        "generator" : "Khronos glTF Blender I/O v1.5.17",
        "version" : "2.0"
    },
    "scene" : 0,
    "scenes" : [
        {
            "name" : "Scene",
            "nodes" : [
                0,
                1,
                2,
                3
            ]
        }
    ],
    "nodes" : [
        {
            "mesh" : 0,
            "name" : "country",
            "rotation" : [
                0,
                -0.13067948818206787,
                0,
                -0.9914246797561646
            ],
            "scale" : [
                1.0994564294815063,
                1.0994563102722168,
                1.0994564294815063
            ],
            "translation" : [
                1.0781440734863281,
                -0.08358395099639893,
                1.0842150449752808
            ]
        },
        {
            "name" : "Spot",
            "rotation" : [
                -0.6074443459510803,
                0,
                0,
                0.7943622469902039
            ],
            "translation" : [
                -3.488131284713745,
                1.289008617401123,
                -87.26515197753906
            ]
        },
        {
            "name" : "Light",
            "rotation" : [
                0.16907575726509094,
                0.7558803558349609,
                -0.27217137813568115,
                0.570947527885437
            ],
            "translation" : [
                4.076245307922363,
                5.903861999511719,
                -1.0054539442062378
            ]
        },
        {
            "name" : "Camera",
            "rotation" : [
                0.483536034822464,
                0.33687159419059753,
                -0.20870360732078552,
                0.7804827094078064
            ],
            "translation" : [
                7.358891487121582,
                4.958309173583984,
                6.925790786743164
            ]
        }
    ],
    "materials" : [
        {
            "doubleSided" : true,
            "emissiveFactor" : [
                0.0560445562005043,
                0.0027408127207309008,
                0.13757726550102234
            ],
            "name" : "sofa_01.001",
            "pbrMetallicRoughness" : {
                "baseColorFactor" : [
                    0.5840784907341003,
                    0.018267078325152397,
                    0.5203694701194763,
                    1
                ],
                "metallicFactor" : 0,
                "roughnessFactor" : 0.708823561668396
            }
        }
    ],
    "meshes" : [
        {
            "name" : "Plane.011",
            "primitives" : [
                {
                    "attributes" : {
                        "POSITION" : 0,
                        "NORMAL" : 1,
                        "TEXCOORD_0" : 2
                    },
                    "indices" : 3,
                    "material" : 0
                }
            ]
        }
    ],
    "accessors" : [
        {
            "bufferView" : 0,
            "componentType" : 5126,
            "count" : 608,
            "max" : [
                6.085792064666748,
                1.3386199474334717,
                4.778787136077881
            ],
            "min" : [
                -6.814233779907227,
                0,
                -7.21928071975708
            ],
            "type" : "VEC3"
        },
        {
            "bufferView" : 1,
            "componentType" : 5126,
            "count" : 608,
            "type" : "VEC3"
        },
        {
            "bufferView" : 2,
            "componentType" : 5126,
            "count" : 608,
            "type" : "VEC2"
        },
        {
            "bufferView" : 3,
            "componentType" : 5123,
            "count" : 1788,
            "type" : "SCALAR"
        }
    ],
    "bufferViews" : [
        {
            "buffer" : 0,
            "byteLength" : 7296,
            "byteOffset" : 0
        },
        {
            "buffer" : 0,
            "byteLength" : 7296,
            "byteOffset" : 7296
        },
        {
            "buffer" : 0,
            "byteLength" : 4864,
            "byteOffset" : 14592
        },
        {
            "buffer" : 0,
            "byteLength" : 3576,
            "byteOffset" : 19456
        }
    ],
    "buffers" : [
        {
            "byteLength" : 23032,
            "uri" : "data:application/octet-stream;base64,"
        }
    ]
}
