{
    "asset" : {
        "generator" : "Khronos glTF Blender I/O v1.4.40",
        "version" : "2.0"
    },
    "scene" : 0,
    "scenes" : [
        {
            "name" : "Scene",
            "nodes" : [
                0,
                1,
                2,
                3
            ]
        }
    ],
    "nodes" : [
        {
            "mesh" : 0,
            "name" : "Character02",
            "scale" : [
                0.7608973383903503,
                0.7608973383903503,
                0.7608973383903503
            ],
            "translation" : [
                0,
                5.087615966796875,
                6.999707221984863
            ]
        },
        {
            "mesh" : 1,
            "name" : "SmallGlow",
            "scale" : [
                0.6839978694915771,
                0.6839978694915771,
                0.6839978694915771
            ],
            "translation" : [
                0.1862039566040039,
                4.17071008682251,
                5.289808750152588
            ]
        },
        {
            "mesh" : 2,
            "name" : "shine",
            "rotation" : [
                0.7021872401237488,
                0.08326521515846252,
                0.08326523005962372,
                0.7021872997283936
            ],
            "scale" : [
                0.6181533336639404,
                0.6181532740592957,
                0.6181533336639404
            ],
            "translation" : [
                -0.07165593653917313,
                6.6190972328186035,
                3.0145132541656494
            ]
        },
        {
            "mesh" : 3,
            "name" : "orb01",
            "rotation" : [
                -0.0006812515784986317,
                0.006715445313602686,
                0.0868939682841301,
                0.9961947202682495
            ],
            "translation" : [
                -4.451600074768066,
                7.755796909332275,
                6.665085315704346
            ]
        }
    ],
    "materials" : [
        {
            "doubleSided" : true,
            "name" : "Character",
            "pbrMetallicRoughness" : {
                "baseColorFactor" : [
                    0.8631572127342224,
                    0.8962693810462952,
                    0.003676506457850337,
                    1
                ],
                "metallicFactor" : 0,
                "roughnessFactor" : 0.7013888955116272
            }
        },
        {
            "alphaMode" : "BLEND",
            "doubleSided" : true,
            "name" : "glow01",
            "pbrMetallicRoughness" : {
                "baseColorFactor" : [
                    1,
                    1,
                    1,
                    0.6409090757369995
                ],
                "baseColorTexture" : {
                    "index" : 0,
                    "texCoord" : 0
                },
                "metallicFactor" : 0,
                "roughnessFactor" : 0.5
            }
        },
        {
            "alphaMode" : "BLEND",
            "doubleSided" : true,
            "name" : "Material.001",
            "pbrMetallicRoughness" : {
                "baseColorTexture" : {
                    "index" : 1,
                    "texCoord" : 0
                }
            }
        },
        {
            "alphaMode" : "BLEND",
            "doubleSided" : true,
            "name" : "glow",
            "pbrMetallicRoughness" : {
                "baseColorTexture" : {
                    "index" : 2,
                    "texCoord" : 0
                },
                "metallicFactor" : 0,
                "roughnessFactor" : 0.11363637447357178
            }
        }
    ],
    "meshes" : [
        {
            "name" : "Cube.002",
            "primitives" : [
                {
                    "attributes" : {
                        "POSITION" : 0,
                        "NORMAL" : 1,
                        "TEXCOORD_0" : 2,
                        "COLOR_0" : 3
                    },
                    "indices" : 4,
                    "material" : 0
                }
            ]
        },
        {
            "name" : "Circle.001",
            "primitives" : [
                {
                    "attributes" : {
                        "POSITION" : 5,
                        "NORMAL" : 6,
                        "TEXCOORD_0" : 7
                    },
                    "indices" : 8,
                    "material" : 1
                }
            ]
        },
        {
            "name" : "Plane.012",
            "primitives" : [
                {
                    "attributes" : {
                        "POSITION" : 9,
                        "NORMAL" : 10,
                        "TEXCOORD_0" : 11
                    },
                    "indices" : 12,
                    "material" : 2
                }
            ]
        },
        {
            "name" : "Sphere.012",
            "primitives" : [
                {
                    "attributes" : {
                        "POSITION" : 13,
                        "NORMAL" : 14,
                        "TEXCOORD_0" : 15
                    },
                    "indices" : 16,
                    "material" : 3
                }
            ]
        }
    ],
    "textures" : [
        {
            "sampler" : 0,
            "source" : 0
        },
        {
            "sampler" : 0,
            "source" : 1
        },
        {
            "sampler" : 0,
            "source" : 2
        }
    ],
    "images" : [
        {
            "bufferView" : 9,
            "mimeType" : "image/png",
            "name" : "SmallGlow"
        },
        {
            "bufferView" : 14,
            "mimeType" : "image/png",
            "name" : "lightStrips_BaseColor"
        },
        {
            "bufferView" : 19,
            "mimeType" : "image/png",
            "name" : "religionSPhere"
        }
    ],
    "accessors" : [
        {
            "bufferView" : 0,
            "componentType" : 5126,
            "count" : 830,
            "max" : [
                2.877025842666626,
                8.789287567138672,
                3.25083589553833
            ],
            "min" : [
                -2.877025842666626,
                -1.9384686946868896,
                -2.412087917327881
            ],
            "type" : "VEC3"
        },
        {
            "bufferView" : 1,
            "componentType" : 5126,
            "count" : 830,
            "type" : "VEC3"
        },
        {
            "bufferView" : 2,
            "componentType" : 5126,
            "count" : 830,
            "type" : "VEC2"
        },
        {
            "bufferView" : 3,
            "componentType" : 5123,
            "count" : 830,
            "normalized" : true,
            "type" : "VEC4"
        },
        {
            "bufferView" : 4,
            "componentType" : 5123,
            "count" : 4800,
            "type" : "SCALAR"
        },
        {
            "bufferView" : 5,
            "componentType" : 5126,
            "count" : 54,
            "max" : [
                4.718443393707275,
                9.747488975524902,
                -0.4789571464061737
            ],
            "min" : [
                -4.718442440032959,
                0.310602068901062,
                -0.4789577126502991
            ],
            "type" : "VEC3"
        },
        {
            "bufferView" : 6,
            "componentType" : 5126,
            "count" : 54,
            "type" : "VEC3"
        },
        {
            "bufferView" : 7,
            "componentType" : 5126,
            "count" : 54,
            "type" : "VEC2"
        },
        {
            "bufferView" : 8,
            "componentType" : 5123,
            "count" : 54,
            "type" : "SCALAR"
        },
        {
            "bufferView" : 10,
            "componentType" : 5126,
            "count" : 46,
            "max" : [
                13.36986255645752,
                2.70381236076355,
                11.389534950256348
            ],
            "min" : [
                -11.715922355651855,
                -0.6713447570800781,
                -14.487714767456055
            ],
            "type" : "VEC3"
        },
        {
            "bufferView" : 11,
            "componentType" : 5126,
            "count" : 46,
            "type" : "VEC3"
        },
        {
            "bufferView" : 12,
            "componentType" : 5126,
            "count" : 46,
            "type" : "VEC2"
        },
        {
            "bufferView" : 13,
            "componentType" : 5123,
            "count" : 48,
            "type" : "SCALAR"
        },
        {
            "bufferView" : 15,
            "componentType" : 5126,
            "count" : 360,
            "max" : [
                10.199196815490723,
                5.286974906921387,
                0.12713059782981873
            ],
            "min" : [
                -1.4027843475341797,
                -2.9629158973693848,
                -0.029207199811935425
            ],
            "type" : "VEC3"
        },
        {
            "bufferView" : 16,
            "componentType" : 5126,
            "count" : 360,
            "type" : "VEC3"
        },
        {
            "bufferView" : 17,
            "componentType" : 5126,
            "count" : 360,
            "type" : "VEC2"
        },
        {
            "bufferView" : 18,
            "componentType" : 5123,
            "count" : 360,
            "type" : "SCALAR"
        }
    ],
    "bufferViews" : [
        {
            "buffer" : 0,
            "byteLength" : 9960,
            "byteOffset" : 0
        },
        {
            "buffer" : 0,
            "byteLength" : 9960,
            "byteOffset" : 9960
        },
        {
            "buffer" : 0,
            "byteLength" : 6640,
            "byteOffset" : 19920
        },
        {
            "buffer" : 0,
            "byteLength" : 6640,
            "byteOffset" : 26560
        },
        {
            "buffer" : 0,
            "byteLength" : 9600,
            "byteOffset" : 33200
        },
        {
            "buffer" : 0,
            "byteLength" : 648,
            "byteOffset" : 42800
        },
        {
            "buffer" : 0,
            "byteLength" : 648,
            "byteOffset" : 43448
        },
        {
            "buffer" : 0,
            "byteLength" : 432,
            "byteOffset" : 44096
        },
        {
            "buffer" : 0,
            "byteLength" : 108,
            "byteOffset" : 44528
        },
        {
            "buffer" : 0,
            "byteLength" : 66481,
            "byteOffset" : 44636
        },
        {
            "buffer" : 0,
            "byteLength" : 552,
            "byteOffset" : 111120
        },
        {
            "buffer" : 0,
            "byteLength" : 552,
            "byteOffset" : 111672
        },
        {
            "buffer" : 0,
            "byteLength" : 368,
            "byteOffset" : 112224
        },
        {
            "buffer" : 0,
            "byteLength" : 96,
            "byteOffset" : 112592
        },
        {
            "buffer" : 0,
            "byteLength" : 94479,
            "byteOffset" : 112688
        },
        {
            "buffer" : 0,
            "byteLength" : 4320,
            "byteOffset" : 207168
        },
        {
            "buffer" : 0,
            "byteLength" : 4320,
            "byteOffset" : 211488
        },
        {
            "buffer" : 0,
            "byteLength" : 2880,
            "byteOffset" : 215808
        },
        {
            "buffer" : 0,
            "byteLength" : 720,
            "byteOffset" : 218688
        },
        {
            "buffer" : 0,
            "byteLength" : 60629,
            "byteOffset" : 219408
        }
    ],
    "samplers" : [
        {
            "magFilter" : 9729,
            "minFilter" : 9986
        }
    ],
    "buffers" : [
        {
            "byteLength" : 280040,
            "uri" : "data:application/octet-stream;base64,"
        }
    ]
}
