{
    "asset" : {
        "generator" : "Khronos glTF Blender I/O v1.4.40",
        "version" : "2.0"
    },
    "scene" : 0,
    "scenes" : [
        {
            "name" : "Scene",
            "nodes" : [
                0,
                1
            ]
        }
    ],
    "nodes" : [
        {
            "mesh" : 0,
            "name" : "Temple",
            "rotation" : [
                0,
                0.5021719932556152,
                0,
                0.8647677898406982
            ],
            "scale" : [
                1.0615137815475464,
                1.0615137815475464,
                1.0615137815475464
            ]
        },
        {
            "mesh" : 1,
            "name" : "Temple_Base",
            "rotation" : [
                0,
                0.5021719932556152,
                0,
                0.8647677898406982
            ],
            "scale" : [
                1.0615137815475464,
                1.0615137815475464,
                1.0615137815475464
            ]
        }
    ],
    "materials" : [
        {
            "doubleSided" : true,
            "name" : "roof.002",
            "pbrMetallicRoughness" : {
                "baseColorFactor" : [
                    0.1169707328081131,
                    0.014443829655647278,
                    0.35153263807296753,
                    1
                ],
                "metallicFactor" : 0,
                "roughnessFactor" : 0.6911764740943909
            }
        },
        {
            "doubleSided" : true,
            "emissiveFactor" : [
                0.00515338871628046,
                0.00515338871628046,
                0.00515338871628046
            ],
            "name" : "doors.002",
            "pbrMetallicRoughness" : {
                "baseColorFactor" : [
                    0.01298303622752428,
                    0.0030352675821632147,
                    0.03189604729413986,
                    1
                ],
                "metallicFactor" : 0,
                "roughnessFactor" : 0.7058823704719543
            }
        },
        {
            "doubleSided" : true,
            "emissiveFactor" : [
                0.00515338871628046,
                0.00515338871628046,
                0.00515338871628046
            ],
            "name" : "doors",
            "pbrMetallicRoughness" : {
                "baseColorFactor" : [
                    0.01298303622752428,
                    0.0030352675821632147,
                    0.03189604729413986,
                    1
                ],
                "metallicFactor" : 0,
                "roughnessFactor" : 0.7058823704719543
            }
        },
        {
            "doubleSided" : true,
            "name" : "roof.001",
            "pbrMetallicRoughness" : {
                "baseColorFactor" : [
                    0.1169707328081131,
                    0.014443829655647278,
                    0.35153263807296753,
                    1
                ],
                "metallicFactor" : 0,
                "roughnessFactor" : 0.6911764740943909
            }
        },
        {
            "doubleSided" : true,
            "name" : "temple.001",
            "pbrMetallicRoughness" : {
                "baseColorFactor" : [
                    1,
                    0.687429666519165,
                    0.023718221113085747,
                    1
                ],
                "metallicFactor" : 0,
                "roughnessFactor" : 0.8823529481887817
            }
        }
    ],
    "meshes" : [
        {
            "name" : "Cube.014",
            "primitives" : [
                {
                    "attributes" : {
                        "POSITION" : 0,
                        "NORMAL" : 1,
                        "TEXCOORD_0" : 2,
                        "COLOR_0" : 3
                    },
                    "indices" : 4,
                    "material" : 0
                },
                {
                    "attributes" : {
                        "POSITION" : 5,
                        "NORMAL" : 6,
                        "TEXCOORD_0" : 7,
                        "COLOR_0" : 8
                    },
                    "indices" : 9,
                    "material" : 1
                },
                {
                    "attributes" : {
                        "POSITION" : 10,
                        "NORMAL" : 11,
                        "TEXCOORD_0" : 12,
                        "COLOR_0" : 13
                    },
                    "indices" : 14,
                    "material" : 2
                },
                {
                    "attributes" : {
                        "POSITION" : 15,
                        "NORMAL" : 16,
                        "TEXCOORD_0" : 17,
                        "COLOR_0" : 18
                    },
                    "indices" : 19,
                    "material" : 3
                }
            ]
        },
        {
            "name" : "Cube.001",
            "primitives" : [
                {
                    "attributes" : {
                        "POSITION" : 20,
                        "NORMAL" : 21,
                        "TEXCOORD_0" : 22,
                        "COLOR_0" : 23
                    },
                    "indices" : 24,
                    "material" : 4
                }
            ]
        }
    ],
    "accessors" : [
        {
            "bufferView" : 0,
            "componentType" : 5126,
            "count" : 891,
            "max" : [
                4.281643867492676,
                4.994930744171143,
                6.622799873352051
            ],
            "min" : [
                -0.20406247675418854,
                2.6633408069610596,
                1.6591124534606934
            ],
            "type" : "VEC3"
        },
        {
            "bufferView" : 1,
            "componentType" : 5126,
            "count" : 891,
            "type" : "VEC3"
        },
        {
            "bufferView" : 2,
            "componentType" : 5126,
            "count" : 891,
            "type" : "VEC2"
        },
        {
            "bufferView" : 3,
            "componentType" : 5123,
            "count" : 891,
            "normalized" : true,
            "type" : "VEC4"
        },
        {
            "bufferView" : 4,
            "componentType" : 5123,
            "count" : 3336,
            "type" : "SCALAR"
        },
        {
            "bufferView" : 5,
            "componentType" : 5126,
            "count" : 549,
            "max" : [
                2.8336894512176514,
                1.608601450920105,
                5.164905071258545
            ],
            "min" : [
                0.43736550211906433,
                -0.10570669174194336,
                2.4196414947509766
            ],
            "type" : "VEC3"
        },
        {
            "bufferView" : 6,
            "componentType" : 5126,
            "count" : 549,
            "type" : "VEC3"
        },
        {
            "bufferView" : 7,
            "componentType" : 5126,
            "count" : 549,
            "type" : "VEC2"
        },
        {
            "bufferView" : 8,
            "componentType" : 5123,
            "count" : 549,
            "normalized" : true,
            "type" : "VEC4"
        },
        {
            "bufferView" : 9,
            "componentType" : 5123,
            "count" : 1458,
            "type" : "SCALAR"
        },
        {
            "bufferView" : 10,
            "componentType" : 5126,
            "count" : 916,
            "max" : [
                2.5669686794281006,
                3.7421681880950928,
                1.382548213005066
            ],
            "min" : [
                -5.104438304901123,
                0.05931806564331055,
                -3.8101742267608643
            ],
            "type" : "VEC3"
        },
        {
            "bufferView" : 11,
            "componentType" : 5126,
            "count" : 916,
            "type" : "VEC3"
        },
        {
            "bufferView" : 12,
            "componentType" : 5126,
            "count" : 916,
            "type" : "VEC2"
        },
        {
            "bufferView" : 13,
            "componentType" : 5123,
            "count" : 916,
            "normalized" : true,
            "type" : "VEC4"
        },
        {
            "bufferView" : 14,
            "componentType" : 5123,
            "count" : 2430,
            "type" : "SCALAR"
        },
        {
            "bufferView" : 15,
            "componentType" : 5126,
            "count" : 1248,
            "max" : [
                4.862821102142334,
                4.957905292510986,
                0.81873619556427
            ],
            "min" : [
                -0.1431070864200592,
                1.0547434091567993,
                -4.644001483917236
            ],
            "type" : "VEC3"
        },
        {
            "bufferView" : 16,
            "componentType" : 5126,
            "count" : 1248,
            "type" : "VEC3"
        },
        {
            "bufferView" : 17,
            "componentType" : 5126,
            "count" : 1248,
            "type" : "VEC2"
        },
        {
            "bufferView" : 18,
            "componentType" : 5123,
            "count" : 1248,
            "normalized" : true,
            "type" : "VEC4"
        },
        {
            "bufferView" : 19,
            "componentType" : 5123,
            "count" : 3396,
            "type" : "SCALAR"
        },
        {
            "bufferView" : 20,
            "componentType" : 5126,
            "count" : 8150,
            "max" : [
                4.627285003662109,
                5.432285308837891,
                6.909688472747803
            ],
            "min" : [
                -5.491838455200195,
                -0.1276465654373169,
                -4.4006829261779785
            ],
            "type" : "VEC3"
        },
        {
            "bufferView" : 21,
            "componentType" : 5126,
            "count" : 8150,
            "type" : "VEC3"
        },
        {
            "bufferView" : 22,
            "componentType" : 5126,
            "count" : 8150,
            "type" : "VEC2"
        },
        {
            "bufferView" : 23,
            "componentType" : 5123,
            "count" : 8150,
            "normalized" : true,
            "type" : "VEC4"
        },
        {
            "bufferView" : 24,
            "componentType" : 5123,
            "count" : 26508,
            "type" : "SCALAR"
        }
    ],
    "bufferViews" : [
        {
            "buffer" : 0,
            "byteLength" : 10692,
            "byteOffset" : 0
        },
        {
            "buffer" : 0,
            "byteLength" : 10692,
            "byteOffset" : 10692
        },
        {
            "buffer" : 0,
            "byteLength" : 7128,
            "byteOffset" : 21384
        },
        {
            "buffer" : 0,
            "byteLength" : 7128,
            "byteOffset" : 28512
        },
        {
            "buffer" : 0,
            "byteLength" : 6672,
            "byteOffset" : 35640
        },
        {
            "buffer" : 0,
            "byteLength" : 6588,
            "byteOffset" : 42312
        },
        {
            "buffer" : 0,
            "byteLength" : 6588,
            "byteOffset" : 48900
        },
        {
            "buffer" : 0,
            "byteLength" : 4392,
            "byteOffset" : 55488
        },
        {
            "buffer" : 0,
            "byteLength" : 4392,
            "byteOffset" : 59880
        },
        {
            "buffer" : 0,
            "byteLength" : 2916,
            "byteOffset" : 64272
        },
        {
            "buffer" : 0,
            "byteLength" : 10992,
            "byteOffset" : 67188
        },
        {
            "buffer" : 0,
            "byteLength" : 10992,
            "byteOffset" : 78180
        },
        {
            "buffer" : 0,
            "byteLength" : 7328,
            "byteOffset" : 89172
        },
        {
            "buffer" : 0,
            "byteLength" : 7328,
            "byteOffset" : 96500
        },
        {
            "buffer" : 0,
            "byteLength" : 4860,
            "byteOffset" : 103828
        },
        {
            "buffer" : 0,
            "byteLength" : 14976,
            "byteOffset" : 108688
        },
        {
            "buffer" : 0,
            "byteLength" : 14976,
            "byteOffset" : 123664
        },
        {
            "buffer" : 0,
            "byteLength" : 9984,
            "byteOffset" : 138640
        },
        {
            "buffer" : 0,
            "byteLength" : 9984,
            "byteOffset" : 148624
        },
        {
            "buffer" : 0,
            "byteLength" : 6792,
            "byteOffset" : 158608
        },
        {
            "buffer" : 0,
            "byteLength" : 97800,
            "byteOffset" : 165400
        },
        {
            "buffer" : 0,
            "byteLength" : 97800,
            "byteOffset" : 263200
        },
        {
            "buffer" : 0,
            "byteLength" : 65200,
            "byteOffset" : 361000
        },
        {
            "buffer" : 0,
            "byteLength" : 65200,
            "byteOffset" : 426200
        },
        {
            "buffer" : 0,
            "byteLength" : 53016,
            "byteOffset" : 491400
        }
    ],
    "buffers" : [
        {
            "byteLength" : 544416,
            "uri" : "data:application/octet-stream;base64,"
        }
    ]
}
